%FSLAX34Y34*%
%MOMM*%
%LNSOLDERMASK_BOTTOM*%
G71*
G01*
%ADD10C,1.600*%
%ADD11C,2.000*%
%ADD12C,1.700*%
%ADD13C,2.000*%
%ADD14C,2.200*%
%ADD15C,2.200*%
%ADD16C,1.720*%
%ADD17C,1.600*%
%ADD18C,4.400*%
%ADD19C,4.200*%
%ADD20C,2.500*%
%ADD21C,1.720*%
%ADD22C,1.550*%
%ADD23C,3.400*%
%ADD24C,1.400*%
%ADD25C,0.350*%
%LPD*%
G36*
X1161490Y-190416D02*
X1145490Y-190416D01*
X1145490Y-174416D01*
X1161490Y-174416D01*
X1161490Y-190416D01*
G37*
X1128090Y-182415D02*
G54D10*
D03*
X1102690Y-182415D02*
G54D10*
D03*
X1077290Y-182416D02*
G54D10*
D03*
X1051890Y-182416D02*
G54D10*
D03*
X1026490Y-182415D02*
G54D10*
D03*
X1001090Y-182416D02*
G54D10*
D03*
X975690Y-182415D02*
G54D10*
D03*
X950290Y-182416D02*
G54D10*
D03*
X924890Y-182415D02*
G54D10*
D03*
X899490Y-182415D02*
G54D10*
D03*
X874090Y-182416D02*
G54D10*
D03*
X848690Y-182415D02*
G54D10*
D03*
X823290Y-182416D02*
G54D10*
D03*
X797890Y-182416D02*
G54D10*
D03*
X772490Y-182415D02*
G54D10*
D03*
X747090Y-182415D02*
G54D10*
D03*
X721690Y-182415D02*
G54D10*
D03*
X696290Y-182415D02*
G54D10*
D03*
X670890Y-182416D02*
G54D10*
D03*
X670890Y-334816D02*
G54D10*
D03*
X696290Y-334816D02*
G54D10*
D03*
X721690Y-334816D02*
G54D10*
D03*
X747090Y-334816D02*
G54D10*
D03*
X772490Y-334816D02*
G54D10*
D03*
X797890Y-334816D02*
G54D10*
D03*
X823290Y-334816D02*
G54D10*
D03*
X848690Y-334816D02*
G54D10*
D03*
X874090Y-334815D02*
G54D10*
D03*
X899490Y-334816D02*
G54D10*
D03*
X924890Y-334815D02*
G54D10*
D03*
X950290Y-334815D02*
G54D10*
D03*
X975690Y-334816D02*
G54D10*
D03*
X1001090Y-334815D02*
G54D10*
D03*
X1026490Y-334816D02*
G54D10*
D03*
X1051890Y-334815D02*
G54D10*
D03*
X1077290Y-334815D02*
G54D10*
D03*
X1102690Y-334815D02*
G54D10*
D03*
X1128090Y-334816D02*
G54D10*
D03*
X1153490Y-334816D02*
G54D10*
D03*
G36*
X1796435Y-1879918D02*
X1796435Y-1863918D01*
X1812435Y-1863918D01*
X1812435Y-1879918D01*
X1796435Y-1879918D01*
G37*
X1804435Y-1846518D02*
G54D10*
D03*
X1804435Y-1821118D02*
G54D10*
D03*
X1804435Y-1795718D02*
G54D10*
D03*
X1804435Y-1770318D02*
G54D10*
D03*
X1804435Y-1744918D02*
G54D10*
D03*
X1804435Y-1719518D02*
G54D10*
D03*
X1804435Y-1694118D02*
G54D10*
D03*
X1728235Y-1694118D02*
G54D10*
D03*
X1728235Y-1719518D02*
G54D10*
D03*
X1728235Y-1744918D02*
G54D10*
D03*
X1728235Y-1770318D02*
G54D10*
D03*
X1728235Y-1795718D02*
G54D10*
D03*
X1728235Y-1821118D02*
G54D10*
D03*
X1728235Y-1846518D02*
G54D10*
D03*
X1728235Y-1871918D02*
G54D10*
D03*
G36*
X2075838Y-1561977D02*
X2075838Y-1545977D01*
X2091838Y-1545977D01*
X2091838Y-1561977D01*
X2075838Y-1561977D01*
G37*
X2083838Y-1528577D02*
G54D10*
D03*
X2083838Y-1503177D02*
G54D10*
D03*
X2083838Y-1477777D02*
G54D10*
D03*
X2083838Y-1452377D02*
G54D10*
D03*
X2083838Y-1426977D02*
G54D10*
D03*
X2083838Y-1401577D02*
G54D10*
D03*
X2083839Y-1376177D02*
G54D10*
D03*
X2007639Y-1376177D02*
G54D10*
D03*
X2007639Y-1401577D02*
G54D10*
D03*
X2007639Y-1426977D02*
G54D10*
D03*
X2007639Y-1452377D02*
G54D10*
D03*
X2007639Y-1477777D02*
G54D10*
D03*
X2007639Y-1503177D02*
G54D10*
D03*
X2007639Y-1528577D02*
G54D10*
D03*
X2007639Y-1553977D02*
G54D10*
D03*
G36*
X1796345Y-2159148D02*
X1796345Y-2143148D01*
X1812345Y-2143148D01*
X1812345Y-2159148D01*
X1796345Y-2159148D01*
G37*
X1804345Y-2125748D02*
G54D10*
D03*
X1804345Y-2100348D02*
G54D10*
D03*
X1804345Y-2074948D02*
G54D10*
D03*
X1804345Y-2049548D02*
G54D10*
D03*
X1804345Y-2024148D02*
G54D10*
D03*
X1804345Y-1998748D02*
G54D10*
D03*
X1804345Y-1973348D02*
G54D10*
D03*
X1728145Y-1973348D02*
G54D10*
D03*
X1728145Y-1998748D02*
G54D10*
D03*
X1728145Y-2024148D02*
G54D10*
D03*
X1728145Y-2049548D02*
G54D10*
D03*
X1728145Y-2074948D02*
G54D10*
D03*
X1728145Y-2100348D02*
G54D10*
D03*
X1728145Y-2125749D02*
G54D10*
D03*
X1728145Y-2151149D02*
G54D10*
D03*
G36*
X2075656Y-1014964D02*
X2075656Y-998964D01*
X2091656Y-998964D01*
X2091656Y-1014964D01*
X2075656Y-1014964D01*
G37*
X2083656Y-981564D02*
G54D10*
D03*
X2083656Y-956164D02*
G54D10*
D03*
X2083656Y-930764D02*
G54D10*
D03*
X2083656Y-905364D02*
G54D10*
D03*
X2083656Y-879964D02*
G54D10*
D03*
X2083656Y-854564D02*
G54D10*
D03*
X2083656Y-829164D02*
G54D10*
D03*
X2007457Y-829164D02*
G54D10*
D03*
X2007456Y-854564D02*
G54D10*
D03*
X2007456Y-879964D02*
G54D10*
D03*
X2007456Y-905364D02*
G54D10*
D03*
X2007456Y-930764D02*
G54D10*
D03*
X2007456Y-956164D02*
G54D10*
D03*
X2007456Y-981564D02*
G54D10*
D03*
X2007456Y-1006964D02*
G54D10*
D03*
G36*
X1947991Y-1167199D02*
X1947991Y-1151199D01*
X1963991Y-1151199D01*
X1963991Y-1167199D01*
X1947991Y-1167199D01*
G37*
X1955991Y-1133798D02*
G54D10*
D03*
X1955991Y-1108398D02*
G54D10*
D03*
X1955991Y-1082998D02*
G54D10*
D03*
X1955991Y-1057598D02*
G54D10*
D03*
X1955991Y-1032198D02*
G54D10*
D03*
X1955991Y-1006798D02*
G54D10*
D03*
X1955991Y-981398D02*
G54D10*
D03*
X1955991Y-955998D02*
G54D10*
D03*
X1955991Y-930598D02*
G54D10*
D03*
X1955991Y-905198D02*
G54D10*
D03*
X1955991Y-879798D02*
G54D10*
D03*
X1955991Y-854398D02*
G54D10*
D03*
X1955991Y-828998D02*
G54D10*
D03*
X1955991Y-803598D02*
G54D10*
D03*
X1955991Y-778198D02*
G54D10*
D03*
X1955991Y-752798D02*
G54D10*
D03*
X1955991Y-727398D02*
G54D10*
D03*
X1955991Y-701998D02*
G54D10*
D03*
X1955991Y-676599D02*
G54D10*
D03*
X1803591Y-676598D02*
G54D10*
D03*
X1803591Y-701998D02*
G54D10*
D03*
X1803591Y-727398D02*
G54D10*
D03*
X1803591Y-752798D02*
G54D10*
D03*
X1803591Y-778198D02*
G54D10*
D03*
X1803591Y-803598D02*
G54D10*
D03*
X1803591Y-828998D02*
G54D10*
D03*
X1803591Y-854398D02*
G54D10*
D03*
X1803591Y-879798D02*
G54D10*
D03*
X1803591Y-905198D02*
G54D10*
D03*
X1803591Y-930598D02*
G54D10*
D03*
X1803591Y-955998D02*
G54D10*
D03*
X1803591Y-981398D02*
G54D10*
D03*
X1803591Y-1006798D02*
G54D10*
D03*
X1803591Y-1032198D02*
G54D10*
D03*
X1803591Y-1057598D02*
G54D10*
D03*
X1803591Y-1082998D02*
G54D10*
D03*
X1803591Y-1108398D02*
G54D10*
D03*
X1803591Y-1133798D02*
G54D10*
D03*
X1803591Y-1159198D02*
G54D10*
D03*
G36*
X1719391Y-1167198D02*
X1719391Y-1151198D01*
X1735391Y-1151198D01*
X1735391Y-1167198D01*
X1719391Y-1167198D01*
G37*
X1727391Y-1133798D02*
G54D10*
D03*
X1727391Y-1108398D02*
G54D10*
D03*
X1727391Y-1082998D02*
G54D10*
D03*
X1727391Y-1057598D02*
G54D10*
D03*
X1727391Y-1032198D02*
G54D10*
D03*
X1727391Y-1006799D02*
G54D10*
D03*
X1727391Y-981398D02*
G54D10*
D03*
X1727391Y-955999D02*
G54D10*
D03*
X1727391Y-930598D02*
G54D10*
D03*
X1727391Y-905198D02*
G54D10*
D03*
X1727391Y-879798D02*
G54D10*
D03*
X1727391Y-854398D02*
G54D10*
D03*
X1727391Y-828998D02*
G54D10*
D03*
X1727391Y-803598D02*
G54D10*
D03*
X1727391Y-778198D02*
G54D10*
D03*
X1727391Y-752798D02*
G54D10*
D03*
X1727391Y-727398D02*
G54D10*
D03*
X1727391Y-701998D02*
G54D10*
D03*
X1727391Y-676598D02*
G54D10*
D03*
X1574991Y-676598D02*
G54D10*
D03*
X1574991Y-701998D02*
G54D10*
D03*
X1574991Y-727398D02*
G54D10*
D03*
X1574991Y-752798D02*
G54D10*
D03*
X1574991Y-778198D02*
G54D10*
D03*
X1574991Y-803598D02*
G54D10*
D03*
X1574991Y-828998D02*
G54D10*
D03*
X1574991Y-854398D02*
G54D10*
D03*
X1574991Y-879798D02*
G54D10*
D03*
X1574991Y-905198D02*
G54D10*
D03*
X1574991Y-930599D02*
G54D10*
D03*
X1574991Y-955998D02*
G54D10*
D03*
X1574991Y-981398D02*
G54D10*
D03*
X1574991Y-1006798D02*
G54D10*
D03*
X1574991Y-1032198D02*
G54D10*
D03*
X1574991Y-1057598D02*
G54D10*
D03*
X1574991Y-1082998D02*
G54D10*
D03*
X1574991Y-1108398D02*
G54D10*
D03*
X1574991Y-1133798D02*
G54D10*
D03*
X1574991Y-1159198D02*
G54D10*
D03*
G36*
X1681190Y-608426D02*
X1681190Y-592426D01*
X1697190Y-592426D01*
X1697190Y-608426D01*
X1681190Y-608426D01*
G37*
X1689190Y-575026D02*
G54D10*
D03*
X1689190Y-549626D02*
G54D10*
D03*
X1689190Y-524227D02*
G54D10*
D03*
X1612990Y-524227D02*
G54D10*
D03*
X1612990Y-549626D02*
G54D10*
D03*
X1612990Y-575026D02*
G54D10*
D03*
X1612990Y-600426D02*
G54D10*
D03*
G36*
X1478686Y-1167192D02*
X1478686Y-1151192D01*
X1494686Y-1151192D01*
X1494686Y-1167192D01*
X1478686Y-1167192D01*
G37*
X1486686Y-1133792D02*
G54D10*
D03*
X1486686Y-1108392D02*
G54D10*
D03*
X1486686Y-1082992D02*
G54D10*
D03*
X1486686Y-1057592D02*
G54D10*
D03*
X1486686Y-1032193D02*
G54D10*
D03*
X1486686Y-1006793D02*
G54D10*
D03*
X1486686Y-981393D02*
G54D10*
D03*
X1486686Y-955993D02*
G54D10*
D03*
X1486686Y-930593D02*
G54D10*
D03*
X1486686Y-905193D02*
G54D10*
D03*
X1486686Y-879793D02*
G54D10*
D03*
X1486686Y-854393D02*
G54D10*
D03*
X1486685Y-828993D02*
G54D10*
D03*
X1334286Y-828993D02*
G54D10*
D03*
X1334286Y-854393D02*
G54D10*
D03*
X1334286Y-879793D02*
G54D10*
D03*
X1334286Y-905193D02*
G54D10*
D03*
X1334286Y-930593D02*
G54D10*
D03*
X1334286Y-955993D02*
G54D10*
D03*
X1334286Y-981393D02*
G54D10*
D03*
X1334286Y-1006793D02*
G54D10*
D03*
X1334286Y-1032193D02*
G54D10*
D03*
X1334286Y-1057592D02*
G54D10*
D03*
X1334286Y-1082992D02*
G54D10*
D03*
X1334285Y-1108392D02*
G54D10*
D03*
X1334286Y-1133792D02*
G54D10*
D03*
X1334286Y-1159192D02*
G54D10*
D03*
G36*
X1020800Y-1167834D02*
X1020800Y-1151834D01*
X1036800Y-1151834D01*
X1036800Y-1167834D01*
X1020800Y-1167834D01*
G37*
X1028800Y-1134434D02*
G54D10*
D03*
X1028800Y-1109034D02*
G54D10*
D03*
X1028800Y-1083634D02*
G54D10*
D03*
X1028800Y-1058234D02*
G54D10*
D03*
X1028800Y-1032834D02*
G54D10*
D03*
X1028800Y-1007434D02*
G54D10*
D03*
X1028800Y-982034D02*
G54D10*
D03*
X1028800Y-956634D02*
G54D10*
D03*
X1028800Y-931234D02*
G54D10*
D03*
X1028800Y-905834D02*
G54D10*
D03*
X1028800Y-880434D02*
G54D10*
D03*
X1028800Y-855034D02*
G54D10*
D03*
X1028800Y-829634D02*
G54D10*
D03*
X876400Y-829634D02*
G54D10*
D03*
X876400Y-855034D02*
G54D10*
D03*
X876400Y-880434D02*
G54D10*
D03*
X876400Y-905834D02*
G54D10*
D03*
X876400Y-931234D02*
G54D10*
D03*
X876400Y-956634D02*
G54D10*
D03*
X876400Y-982034D02*
G54D10*
D03*
X876400Y-1007434D02*
G54D10*
D03*
X876400Y-1032834D02*
G54D10*
D03*
X876400Y-1058234D02*
G54D10*
D03*
X876400Y-1083634D02*
G54D10*
D03*
X876400Y-1109034D02*
G54D10*
D03*
X876400Y-1134434D02*
G54D10*
D03*
X876400Y-1159834D02*
G54D10*
D03*
G36*
X765642Y-1167818D02*
X765642Y-1151818D01*
X781642Y-1151818D01*
X781642Y-1167818D01*
X765642Y-1167818D01*
G37*
X773642Y-1134418D02*
G54D10*
D03*
X773642Y-1109018D02*
G54D10*
D03*
X773642Y-1083618D02*
G54D10*
D03*
X773642Y-1058218D02*
G54D10*
D03*
X773642Y-1032818D02*
G54D10*
D03*
X773642Y-1007418D02*
G54D10*
D03*
X697442Y-1007418D02*
G54D10*
D03*
X697442Y-1032818D02*
G54D10*
D03*
X697442Y-1058218D02*
G54D10*
D03*
X697442Y-1083618D02*
G54D10*
D03*
X697442Y-1109018D02*
G54D10*
D03*
X697442Y-1134418D02*
G54D10*
D03*
X697442Y-1159818D02*
G54D10*
D03*
G36*
X638642Y-1167818D02*
X638642Y-1151818D01*
X654642Y-1151818D01*
X654642Y-1167818D01*
X638642Y-1167818D01*
G37*
X646642Y-1134418D02*
G54D10*
D03*
X646642Y-1109018D02*
G54D10*
D03*
X646642Y-1083618D02*
G54D10*
D03*
X646642Y-1058218D02*
G54D10*
D03*
X646642Y-1032818D02*
G54D10*
D03*
X646642Y-1007418D02*
G54D10*
D03*
X570442Y-1007418D02*
G54D10*
D03*
X570442Y-1032818D02*
G54D10*
D03*
X570442Y-1058218D02*
G54D10*
D03*
X570442Y-1083618D02*
G54D10*
D03*
X570442Y-1109018D02*
G54D10*
D03*
X570442Y-1134418D02*
G54D10*
D03*
X570442Y-1159818D02*
G54D10*
D03*
G36*
X182224Y-1167188D02*
X182224Y-1151188D01*
X198224Y-1151188D01*
X198224Y-1167188D01*
X182224Y-1167188D01*
G37*
X190224Y-1133788D02*
G54D10*
D03*
X190224Y-1108388D02*
G54D10*
D03*
X190224Y-1082988D02*
G54D10*
D03*
X190224Y-1057588D02*
G54D10*
D03*
X190224Y-1032188D02*
G54D10*
D03*
X190224Y-1006788D02*
G54D10*
D03*
X190224Y-981388D02*
G54D10*
D03*
X190224Y-955988D02*
G54D10*
D03*
X190224Y-930589D02*
G54D10*
D03*
X114024Y-930588D02*
G54D10*
D03*
X114024Y-955988D02*
G54D10*
D03*
X114024Y-981388D02*
G54D10*
D03*
X114024Y-1006788D02*
G54D10*
D03*
X114024Y-1032188D02*
G54D10*
D03*
X114024Y-1057588D02*
G54D10*
D03*
X114024Y-1082988D02*
G54D10*
D03*
X114024Y-1108388D02*
G54D10*
D03*
X114024Y-1133788D02*
G54D10*
D03*
X114024Y-1159188D02*
G54D10*
D03*
G36*
X334555Y-1562100D02*
X334555Y-1546100D01*
X350555Y-1546100D01*
X350555Y-1562100D01*
X334555Y-1562100D01*
G37*
X342555Y-1528700D02*
G54D10*
D03*
X342555Y-1503300D02*
G54D10*
D03*
X342555Y-1477900D02*
G54D10*
D03*
X342555Y-1452500D02*
G54D10*
D03*
X342555Y-1427100D02*
G54D10*
D03*
X342555Y-1401700D02*
G54D10*
D03*
X342555Y-1376300D02*
G54D10*
D03*
X342555Y-1350900D02*
G54D10*
D03*
X342555Y-1325500D02*
G54D10*
D03*
X342555Y-1300100D02*
G54D10*
D03*
X342555Y-1274699D02*
G54D10*
D03*
X266354Y-1274700D02*
G54D10*
D03*
X266354Y-1300100D02*
G54D10*
D03*
X266354Y-1325500D02*
G54D10*
D03*
X266354Y-1350900D02*
G54D10*
D03*
X266354Y-1376300D02*
G54D10*
D03*
X266354Y-1401700D02*
G54D10*
D03*
X266354Y-1427100D02*
G54D10*
D03*
X266354Y-1452500D02*
G54D10*
D03*
X266354Y-1477900D02*
G54D10*
D03*
X266354Y-1503300D02*
G54D10*
D03*
X266354Y-1528700D02*
G54D10*
D03*
X266355Y-1554100D02*
G54D10*
D03*
G36*
X639118Y-1562036D02*
X639118Y-1546036D01*
X655118Y-1546036D01*
X655118Y-1562036D01*
X639118Y-1562036D01*
G37*
X647118Y-1528636D02*
G54D10*
D03*
X647118Y-1503236D02*
G54D10*
D03*
X647118Y-1477836D02*
G54D10*
D03*
X647118Y-1452436D02*
G54D10*
D03*
X647118Y-1427037D02*
G54D10*
D03*
X647118Y-1401637D02*
G54D10*
D03*
X570918Y-1401637D02*
G54D10*
D03*
X570918Y-1427037D02*
G54D10*
D03*
X570918Y-1452436D02*
G54D10*
D03*
X570918Y-1477836D02*
G54D10*
D03*
X570918Y-1503236D02*
G54D10*
D03*
X570918Y-1528636D02*
G54D10*
D03*
X570918Y-1554036D02*
G54D10*
D03*
G36*
X764920Y-735371D02*
X764920Y-719371D01*
X780920Y-719371D01*
X780920Y-735371D01*
X764920Y-735371D01*
G37*
X772920Y-701971D02*
G54D10*
D03*
X772920Y-676571D02*
G54D10*
D03*
X772920Y-651171D02*
G54D10*
D03*
X696720Y-651171D02*
G54D10*
D03*
X696720Y-676571D02*
G54D10*
D03*
X696720Y-701971D02*
G54D10*
D03*
X696720Y-727371D02*
G54D10*
D03*
G36*
X625220Y-836520D02*
X625220Y-820520D01*
X641220Y-820520D01*
X641220Y-836520D01*
X625220Y-836520D01*
G37*
X633220Y-803120D02*
G54D10*
D03*
X633220Y-777720D02*
G54D10*
D03*
X633220Y-752320D02*
G54D10*
D03*
X633220Y-726920D02*
G54D10*
D03*
X633220Y-701520D02*
G54D10*
D03*
X633220Y-676119D02*
G54D10*
D03*
X633220Y-650719D02*
G54D10*
D03*
X557020Y-650719D02*
G54D10*
D03*
X557020Y-676120D02*
G54D10*
D03*
X557020Y-701520D02*
G54D10*
D03*
X557020Y-726919D02*
G54D10*
D03*
X557020Y-752320D02*
G54D10*
D03*
X557020Y-777720D02*
G54D10*
D03*
X557020Y-803120D02*
G54D10*
D03*
X557020Y-828519D02*
G54D10*
D03*
G36*
X485520Y-836519D02*
X485520Y-820519D01*
X501520Y-820519D01*
X501520Y-836519D01*
X485520Y-836519D01*
G37*
X493520Y-803120D02*
G54D10*
D03*
X493520Y-777720D02*
G54D10*
D03*
X493520Y-752319D02*
G54D10*
D03*
X493520Y-726919D02*
G54D10*
D03*
X493520Y-701520D02*
G54D10*
D03*
X493520Y-676120D02*
G54D10*
D03*
X493520Y-650720D02*
G54D10*
D03*
X417320Y-650720D02*
G54D10*
D03*
X417320Y-676120D02*
G54D10*
D03*
X417320Y-701520D02*
G54D10*
D03*
X417320Y-726920D02*
G54D10*
D03*
X417320Y-752320D02*
G54D10*
D03*
X417320Y-777720D02*
G54D10*
D03*
X417320Y-803120D02*
G54D10*
D03*
X417320Y-828520D02*
G54D10*
D03*
G36*
X1604477Y-331132D02*
X1620477Y-331132D01*
X1620477Y-347132D01*
X1604477Y-347132D01*
X1604477Y-331132D01*
G37*
X1637877Y-339132D02*
G54D10*
D03*
X1663277Y-339132D02*
G54D10*
D03*
X1688677Y-339132D02*
G54D10*
D03*
X1714077Y-339132D02*
G54D10*
D03*
X1739477Y-339132D02*
G54D10*
D03*
X1764877Y-339132D02*
G54D10*
D03*
X1790277Y-339132D02*
G54D10*
D03*
X1815677Y-339132D02*
G54D10*
D03*
X1841077Y-339132D02*
G54D10*
D03*
X1841077Y-262932D02*
G54D10*
D03*
X1815677Y-262932D02*
G54D10*
D03*
X1790277Y-262932D02*
G54D10*
D03*
X1764877Y-262932D02*
G54D10*
D03*
X1739477Y-262932D02*
G54D10*
D03*
X1714077Y-262932D02*
G54D10*
D03*
X1688677Y-262932D02*
G54D10*
D03*
X1663277Y-262932D02*
G54D10*
D03*
X1637877Y-262932D02*
G54D10*
D03*
X1612477Y-262932D02*
G54D10*
D03*
G36*
X1240595Y-177074D02*
X1260595Y-177074D01*
X1260595Y-197074D01*
X1240595Y-197074D01*
X1240595Y-177074D01*
G37*
X1250595Y-161674D02*
G54D11*
D03*
X1275995Y-187073D02*
G54D11*
D03*
X1275995Y-161674D02*
G54D11*
D03*
X1301395Y-187073D02*
G54D11*
D03*
X1301395Y-161674D02*
G54D11*
D03*
X1326795Y-187073D02*
G54D11*
D03*
X1326795Y-161674D02*
G54D11*
D03*
X1352195Y-187074D02*
G54D11*
D03*
X1352195Y-161674D02*
G54D11*
D03*
X1377595Y-187073D02*
G54D11*
D03*
X1377595Y-161674D02*
G54D11*
D03*
X1402995Y-187074D02*
G54D11*
D03*
X1402995Y-161674D02*
G54D11*
D03*
X1428395Y-187074D02*
G54D11*
D03*
X1428395Y-161674D02*
G54D11*
D03*
X1453795Y-187074D02*
G54D11*
D03*
X1453795Y-161674D02*
G54D11*
D03*
X1479195Y-187074D02*
G54D11*
D03*
X1479195Y-161674D02*
G54D11*
D03*
X1500836Y-448328D02*
G54D12*
D03*
X1627836Y-448328D02*
G54D12*
D03*
X1665936Y-448328D02*
G54D12*
D03*
X1792936Y-448328D02*
G54D12*
D03*
X1474007Y-473728D02*
G54D13*
D03*
X1474007Y-448328D02*
G54D13*
D03*
X1671176Y-192941D02*
G54D12*
D03*
X1772776Y-192941D02*
G54D12*
D03*
X1803401Y-193128D02*
G54D12*
D03*
X1905000Y-193128D02*
G54D12*
D03*
X1803401Y-231228D02*
G54D12*
D03*
X1905000Y-231228D02*
G54D12*
D03*
X1728145Y-511358D02*
G54D12*
D03*
X1931345Y-511358D02*
G54D12*
D03*
X1728145Y-600258D02*
G54D12*
D03*
X1931345Y-600257D02*
G54D12*
D03*
X1385245Y-536758D02*
G54D12*
D03*
X1588445Y-536758D02*
G54D12*
D03*
X2000543Y-664751D02*
G54D12*
D03*
X2127543Y-664751D02*
G54D12*
D03*
X2013380Y-740662D02*
G54D12*
D03*
X2140380Y-740662D02*
G54D12*
D03*
X2013380Y-778762D02*
G54D12*
D03*
X2140380Y-778762D02*
G54D12*
D03*
X2046076Y-1948406D02*
G54D12*
D03*
X2173076Y-1948406D02*
G54D12*
D03*
X2046076Y-1973806D02*
G54D12*
D03*
X2173076Y-1973806D02*
G54D12*
D03*
X2046076Y-1999206D02*
G54D12*
D03*
X2173076Y-1999206D02*
G54D12*
D03*
X2046076Y-2024606D02*
G54D12*
D03*
X2173076Y-2024606D02*
G54D12*
D03*
G36*
X2037490Y-2041754D02*
X2054490Y-2041754D01*
X2054490Y-2058754D01*
X2037490Y-2058754D01*
X2037490Y-2041754D01*
G37*
X2173249Y-2050254D02*
G54D12*
D03*
G36*
X2037490Y-2067154D02*
X2054490Y-2067154D01*
X2054490Y-2084154D01*
X2037490Y-2084154D01*
X2037490Y-2067154D01*
G37*
X2173249Y-2075654D02*
G54D12*
D03*
X1601250Y-638768D02*
G54D12*
D03*
X1702850Y-638768D02*
G54D12*
D03*
X1410750Y-600668D02*
G54D12*
D03*
X1512350Y-600668D02*
G54D12*
D03*
X1410750Y-638768D02*
G54D12*
D03*
X1512350Y-638768D02*
G54D12*
D03*
X1397212Y-677024D02*
G54D12*
D03*
X1524212Y-677024D02*
G54D12*
D03*
X1398049Y-752509D02*
G54D12*
D03*
X1525049Y-752509D02*
G54D12*
D03*
X1410750Y-714968D02*
G54D12*
D03*
X1512350Y-714968D02*
G54D12*
D03*
X1194263Y-269786D02*
G54D12*
D03*
X1295863Y-269786D02*
G54D12*
D03*
G36*
X979169Y-439142D02*
X999169Y-439142D01*
X999169Y-459142D01*
X979169Y-459142D01*
X979169Y-439142D01*
G37*
X989169Y-474611D02*
G54D13*
D03*
X989137Y-500150D02*
G54D13*
D03*
X1232112Y-537324D02*
G54D12*
D03*
X1359112Y-537324D02*
G54D12*
D03*
X924536Y-562577D02*
G54D13*
D03*
X1052784Y-562577D02*
G54D13*
D03*
X2165993Y-313833D02*
G54D14*
D03*
X2083658Y-313537D02*
G54D14*
D03*
X2165683Y-523871D02*
G54D14*
D03*
X2083348Y-523575D02*
G54D14*
D03*
G36*
X565024Y-164846D02*
X548024Y-164846D01*
X548024Y-147846D01*
X565024Y-147846D01*
X565024Y-164846D01*
G37*
X429265Y-156346D02*
G54D12*
D03*
X429484Y-195155D02*
G54D12*
D03*
X556484Y-195154D02*
G54D12*
D03*
X429651Y-234397D02*
G54D12*
D03*
X531251Y-234397D02*
G54D12*
D03*
X665308Y-574879D02*
G54D12*
D03*
X868508Y-574879D02*
G54D12*
D03*
X417319Y-574611D02*
G54D12*
D03*
X620519Y-574611D02*
G54D12*
D03*
X233159Y-537660D02*
G54D15*
D03*
X360473Y-537464D02*
G54D15*
D03*
X86751Y-539197D02*
G54D12*
D03*
X188352Y-539197D02*
G54D12*
D03*
X264599Y-596063D02*
G54D12*
D03*
X391599Y-596063D02*
G54D12*
D03*
X112199Y-596063D02*
G54D12*
D03*
X239199Y-596063D02*
G54D12*
D03*
X252752Y-641010D02*
G54D12*
D03*
X379753Y-641010D02*
G54D12*
D03*
X252683Y-730244D02*
G54D12*
D03*
X379683Y-730244D02*
G54D12*
D03*
X99999Y-844682D02*
G54D12*
D03*
X226999Y-844682D02*
G54D12*
D03*
X100000Y-806495D02*
G54D12*
D03*
X201600Y-806495D02*
G54D12*
D03*
X526970Y-1251287D02*
G54D12*
D03*
X653244Y-1250750D02*
G54D12*
D03*
X526970Y-1290429D02*
G54D12*
D03*
X653970Y-1290429D02*
G54D12*
D03*
X526970Y-1328529D02*
G54D12*
D03*
X653970Y-1328529D02*
G54D12*
D03*
X405068Y-1212715D02*
G54D12*
D03*
X532068Y-1212715D02*
G54D12*
D03*
X87568Y-1250815D02*
G54D12*
D03*
X214568Y-1250815D02*
G54D12*
D03*
X87568Y-1288915D02*
G54D12*
D03*
X214568Y-1288915D02*
G54D12*
D03*
X418213Y-1607870D02*
G54D12*
D03*
X545213Y-1607870D02*
G54D12*
D03*
X253113Y-1607870D02*
G54D12*
D03*
X380113Y-1607870D02*
G54D12*
D03*
X253450Y-1646586D02*
G54D12*
D03*
X381237Y-1646288D02*
G54D12*
D03*
X554048Y-2206515D02*
G54D12*
D03*
X681048Y-2206515D02*
G54D12*
D03*
X1582100Y-1759300D02*
G54D11*
D03*
X1556700Y-1759300D02*
G54D11*
D03*
X1531300Y-1759300D02*
G54D11*
D03*
X1505900Y-1759300D02*
G54D11*
D03*
X1480500Y-1759300D02*
G54D11*
D03*
X1455100Y-1759300D02*
G54D11*
D03*
X1429700Y-1759300D02*
G54D11*
D03*
X1404300Y-1759300D02*
G54D11*
D03*
X1378900Y-1759300D02*
G54D11*
D03*
X1353500Y-1759300D02*
G54D11*
D03*
X1328100Y-1759300D02*
G54D11*
D03*
X1302700Y-1759300D02*
G54D11*
D03*
X1277300Y-1759300D02*
G54D11*
D03*
X1251900Y-1759300D02*
G54D11*
D03*
X1226500Y-1759300D02*
G54D11*
D03*
X1201100Y-1759300D02*
G54D11*
D03*
X1175700Y-1759300D02*
G54D11*
D03*
X1150300Y-1759300D02*
G54D11*
D03*
X1099500Y-1759300D02*
G54D11*
D03*
X1074100Y-1759300D02*
G54D11*
D03*
X1048700Y-1759300D02*
G54D11*
D03*
X1023300Y-1759300D02*
G54D11*
D03*
X997900Y-1759300D02*
G54D11*
D03*
X972500Y-1759300D02*
G54D11*
D03*
X947100Y-1759300D02*
G54D11*
D03*
X921700Y-1759300D02*
G54D11*
D03*
X896300Y-1759300D02*
G54D11*
D03*
X870900Y-1759300D02*
G54D11*
D03*
G36*
X835500Y-1749300D02*
X855500Y-1749300D01*
X855500Y-1769300D01*
X835500Y-1769300D01*
X835500Y-1749300D01*
G37*
X1124900Y-1759300D02*
G54D11*
D03*
X1582100Y-1886300D02*
G54D11*
D03*
X1556700Y-1886300D02*
G54D11*
D03*
X1531300Y-1886300D02*
G54D11*
D03*
X1505900Y-1886300D02*
G54D11*
D03*
X1480500Y-1886300D02*
G54D11*
D03*
X1455100Y-1886300D02*
G54D11*
D03*
X1429700Y-1886300D02*
G54D11*
D03*
X1404300Y-1886300D02*
G54D11*
D03*
X1378900Y-1886300D02*
G54D11*
D03*
X1353500Y-1886300D02*
G54D11*
D03*
X1328100Y-1886300D02*
G54D11*
D03*
X1302700Y-1886300D02*
G54D11*
D03*
X1277300Y-1886300D02*
G54D11*
D03*
X1251900Y-1886300D02*
G54D11*
D03*
X1226500Y-1886300D02*
G54D11*
D03*
X1201100Y-1886300D02*
G54D11*
D03*
X1175700Y-1886300D02*
G54D11*
D03*
X1150300Y-1886300D02*
G54D11*
D03*
X1124900Y-1886300D02*
G54D11*
D03*
X1099500Y-1886300D02*
G54D11*
D03*
X1074100Y-1886300D02*
G54D11*
D03*
X1048700Y-1886300D02*
G54D11*
D03*
X1023300Y-1886300D02*
G54D11*
D03*
X997900Y-1886300D02*
G54D11*
D03*
X972500Y-1886300D02*
G54D11*
D03*
X947100Y-1886300D02*
G54D11*
D03*
X921700Y-1886300D02*
G54D11*
D03*
X896300Y-1886300D02*
G54D11*
D03*
X870900Y-1886300D02*
G54D11*
D03*
G36*
X835500Y-1876300D02*
X855500Y-1876300D01*
X855500Y-1896300D01*
X835500Y-1896300D01*
X835500Y-1876300D01*
G37*
G36*
X707423Y-1634906D02*
X707423Y-1652106D01*
X690223Y-1652106D01*
X690223Y-1634906D01*
X707423Y-1634906D01*
G37*
X698823Y-1668906D02*
G54D16*
D03*
X698823Y-1694306D02*
G54D16*
D03*
X698823Y-1719706D02*
G54D16*
D03*
X698823Y-1745106D02*
G54D16*
D03*
X698823Y-1770506D02*
G54D16*
D03*
X698823Y-1795906D02*
G54D16*
D03*
X698823Y-1821306D02*
G54D16*
D03*
X698823Y-1846706D02*
G54D16*
D03*
X698823Y-1872106D02*
G54D16*
D03*
G36*
X707685Y-1928097D02*
X707685Y-1945297D01*
X690485Y-1945297D01*
X690485Y-1928097D01*
X707685Y-1928097D01*
G37*
X699085Y-1962097D02*
G54D16*
D03*
X699085Y-1987497D02*
G54D16*
D03*
X699085Y-2012897D02*
G54D16*
D03*
X699085Y-2038297D02*
G54D16*
D03*
X699085Y-2063697D02*
G54D16*
D03*
X699085Y-2089097D02*
G54D16*
D03*
X699085Y-2114497D02*
G54D16*
D03*
X699085Y-2139897D02*
G54D16*
D03*
X699085Y-2165297D02*
G54D16*
D03*
G36*
X1478890Y-1317768D02*
X1494890Y-1317768D01*
X1494890Y-1333768D01*
X1478890Y-1333768D01*
X1478890Y-1317768D01*
G37*
X1461490Y-1325768D02*
G54D17*
D03*
X1436090Y-1325768D02*
G54D17*
D03*
X1410690Y-1325768D02*
G54D17*
D03*
X1385290Y-1325768D02*
G54D17*
D03*
X1359890Y-1325768D02*
G54D17*
D03*
X1334490Y-1325768D02*
G54D17*
D03*
X1309090Y-1325768D02*
G54D17*
D03*
X1283690Y-1325768D02*
G54D17*
D03*
X1258290Y-1325768D02*
G54D17*
D03*
X1232890Y-1325768D02*
G54D17*
D03*
X1207490Y-1325768D02*
G54D17*
D03*
X1182090Y-1325768D02*
G54D17*
D03*
X1156690Y-1325768D02*
G54D17*
D03*
X1131290Y-1325768D02*
G54D17*
D03*
X1105890Y-1325768D02*
G54D17*
D03*
X1080490Y-1325768D02*
G54D17*
D03*
X1055090Y-1325768D02*
G54D17*
D03*
X1029690Y-1325768D02*
G54D17*
D03*
X1004290Y-1325768D02*
G54D17*
D03*
X978890Y-1325768D02*
G54D17*
D03*
X953490Y-1325768D02*
G54D17*
D03*
X928090Y-1325768D02*
G54D17*
D03*
X902690Y-1325768D02*
G54D17*
D03*
X877290Y-1325768D02*
G54D17*
D03*
X851890Y-1325768D02*
G54D17*
D03*
X826490Y-1325768D02*
G54D17*
D03*
X801090Y-1325768D02*
G54D17*
D03*
X775690Y-1325768D02*
G54D17*
D03*
X750290Y-1325768D02*
G54D17*
D03*
X724890Y-1325768D02*
G54D17*
D03*
X699490Y-1325768D02*
G54D17*
D03*
X1486890Y-1554368D02*
G54D17*
D03*
X1461490Y-1554368D02*
G54D17*
D03*
X1436090Y-1554368D02*
G54D17*
D03*
X1410690Y-1554368D02*
G54D17*
D03*
X1385290Y-1554368D02*
G54D17*
D03*
X1359890Y-1554368D02*
G54D17*
D03*
X1334490Y-1554368D02*
G54D17*
D03*
X1309090Y-1554368D02*
G54D17*
D03*
X1283690Y-1554368D02*
G54D17*
D03*
X1258290Y-1554368D02*
G54D17*
D03*
X1232890Y-1554368D02*
G54D17*
D03*
X1207490Y-1554368D02*
G54D17*
D03*
X1182090Y-1554368D02*
G54D17*
D03*
X1156690Y-1554368D02*
G54D17*
D03*
X1131290Y-1554368D02*
G54D17*
D03*
X1105890Y-1554368D02*
G54D17*
D03*
X1080490Y-1554368D02*
G54D17*
D03*
X1055090Y-1554368D02*
G54D17*
D03*
X1029690Y-1554368D02*
G54D17*
D03*
X1004290Y-1554368D02*
G54D17*
D03*
X978890Y-1554368D02*
G54D17*
D03*
X953490Y-1554368D02*
G54D17*
D03*
X928090Y-1554368D02*
G54D17*
D03*
X902690Y-1554368D02*
G54D17*
D03*
X877290Y-1554368D02*
G54D17*
D03*
X851890Y-1554368D02*
G54D17*
D03*
X826490Y-1554368D02*
G54D17*
D03*
X801090Y-1554368D02*
G54D17*
D03*
X775690Y-1554368D02*
G54D17*
D03*
X750290Y-1554368D02*
G54D17*
D03*
X724890Y-1554368D02*
G54D17*
D03*
X699490Y-1554368D02*
G54D17*
D03*
G36*
X2019954Y-2191449D02*
X2036954Y-2191449D01*
X2036954Y-2208449D01*
X2019954Y-2208449D01*
X2019954Y-2191449D01*
G37*
X2006748Y-2199868D02*
G54D12*
D03*
X2017073Y-2175976D02*
G54D12*
D03*
X1995416Y-2175905D02*
G54D12*
D03*
X1977029Y-97241D02*
G54D18*
D03*
X1727404Y-97201D02*
G54D18*
D03*
X1599676Y-96819D02*
G54D18*
D03*
X1211855Y-96425D02*
G54D18*
D03*
X2184854Y-42909D02*
G54D19*
D03*
X2108589Y-38051D02*
G54D19*
D03*
X2108431Y-90665D02*
G54D19*
D03*
X2108431Y-148193D02*
G54D19*
D03*
X2000697Y-193378D02*
G54D19*
D03*
X1893190Y-384263D02*
G54D19*
D03*
X105320Y-393930D02*
G54D20*
D03*
X105244Y-444146D02*
G54D20*
D03*
X105115Y-260167D02*
G54D20*
D03*
X105038Y-310384D02*
G54D20*
D03*
G36*
X621432Y-121091D02*
X604232Y-121091D01*
X604232Y-103891D01*
X621432Y-103891D01*
X621432Y-121091D01*
G37*
X640532Y-112491D02*
G54D21*
D03*
X668132Y-112491D02*
G54D21*
D03*
X695832Y-112491D02*
G54D21*
D03*
X723532Y-112491D02*
G54D21*
D03*
X751232Y-112491D02*
G54D21*
D03*
X778932Y-112491D02*
G54D21*
D03*
X806632Y-112491D02*
G54D21*
D03*
X834332Y-112491D02*
G54D21*
D03*
X861932Y-112491D02*
G54D21*
D03*
X889632Y-112491D02*
G54D21*
D03*
X917332Y-112491D02*
G54D21*
D03*
X945032Y-112491D02*
G54D21*
D03*
X626732Y-84091D02*
G54D21*
D03*
X654432Y-84091D02*
G54D21*
D03*
X682132Y-84091D02*
G54D21*
D03*
X709832Y-84091D02*
G54D21*
D03*
X737532Y-84091D02*
G54D21*
D03*
X765232Y-84091D02*
G54D21*
D03*
X792932Y-84091D02*
G54D21*
D03*
X820532Y-84091D02*
G54D21*
D03*
X848232Y-84091D02*
G54D21*
D03*
X875932Y-84091D02*
G54D21*
D03*
X903632Y-84091D02*
G54D21*
D03*
X931332Y-84091D02*
G54D21*
D03*
X1015005Y-96425D02*
G54D18*
D03*
X541930Y-96425D02*
G54D18*
D03*
G36*
X1290427Y-120199D02*
X1273227Y-120199D01*
X1273227Y-102999D01*
X1290427Y-102999D01*
X1290427Y-120199D01*
G37*
X1309527Y-111599D02*
G54D21*
D03*
X1337127Y-111599D02*
G54D21*
D03*
X1364827Y-111599D02*
G54D21*
D03*
X1392527Y-111600D02*
G54D21*
D03*
X1420227Y-111599D02*
G54D21*
D03*
X1447927Y-111599D02*
G54D21*
D03*
X1475627Y-111599D02*
G54D21*
D03*
X1503327Y-111600D02*
G54D21*
D03*
X1530927Y-111599D02*
G54D21*
D03*
X1295727Y-83199D02*
G54D21*
D03*
X1323427Y-83199D02*
G54D21*
D03*
X1351127Y-83199D02*
G54D21*
D03*
X1378827Y-83199D02*
G54D21*
D03*
X1406527Y-83199D02*
G54D21*
D03*
X1434227Y-83199D02*
G54D21*
D03*
X1461927Y-83199D02*
G54D21*
D03*
X1489527Y-83199D02*
G54D21*
D03*
X1517227Y-83199D02*
G54D21*
D03*
G36*
X1805399Y-119695D02*
X1788199Y-119695D01*
X1788199Y-102495D01*
X1805399Y-102495D01*
X1805399Y-119695D01*
G37*
X1824398Y-111095D02*
G54D21*
D03*
X1852099Y-111095D02*
G54D21*
D03*
X1879799Y-111095D02*
G54D21*
D03*
X1907499Y-111095D02*
G54D21*
D03*
X1810699Y-82695D02*
G54D21*
D03*
X1838399Y-82695D02*
G54D21*
D03*
X1866099Y-82695D02*
G54D21*
D03*
X1893799Y-82695D02*
G54D21*
D03*
X135736Y-119245D02*
G54D22*
D03*
X155161Y-119225D02*
G54D22*
D03*
X135736Y-93845D02*
G54D22*
D03*
X155161Y-93825D02*
G54D22*
D03*
X182270Y-93739D02*
G54D22*
D03*
X201695Y-93719D02*
G54D22*
D03*
X175844Y-119225D02*
G54D22*
D03*
X201904Y-119219D02*
G54D22*
D03*
X100406Y-57859D02*
G54D20*
D03*
X100406Y-58860D02*
G54D20*
D03*
X100406Y-59860D02*
G54D20*
D03*
X100406Y-60860D02*
G54D20*
D03*
X100406Y-61860D02*
G54D20*
D03*
X100406Y-62860D02*
G54D20*
D03*
X100406Y-63860D02*
G54D20*
D03*
X100406Y-64860D02*
G54D20*
D03*
X100406Y-65860D02*
G54D20*
D03*
X100406Y-66860D02*
G54D20*
D03*
X100406Y-67860D02*
G54D20*
D03*
X100406Y-68859D02*
G54D20*
D03*
X235430Y-58047D02*
G54D20*
D03*
X235430Y-59047D02*
G54D20*
D03*
X235430Y-60047D02*
G54D20*
D03*
X235430Y-61047D02*
G54D20*
D03*
X235430Y-62047D02*
G54D20*
D03*
X235430Y-63047D02*
G54D20*
D03*
X235430Y-64047D02*
G54D20*
D03*
X235430Y-65047D02*
G54D20*
D03*
X235430Y-66047D02*
G54D20*
D03*
X235430Y-67047D02*
G54D20*
D03*
X235430Y-68047D02*
G54D20*
D03*
X235430Y-69047D02*
G54D20*
D03*
X174111Y-55538D02*
G54D20*
D03*
X173110Y-55538D02*
G54D20*
D03*
X172110Y-55538D02*
G54D20*
D03*
X171110Y-55538D02*
G54D20*
D03*
X170110Y-55538D02*
G54D20*
D03*
X169110Y-55538D02*
G54D20*
D03*
X168110Y-55538D02*
G54D20*
D03*
X167110Y-55538D02*
G54D20*
D03*
X166110Y-55538D02*
G54D20*
D03*
X165110Y-55538D02*
G54D20*
D03*
X164110Y-55538D02*
G54D20*
D03*
X163111Y-55538D02*
G54D20*
D03*
X1588390Y-384263D02*
G54D19*
D03*
X1321690Y-384263D02*
G54D19*
D03*
X1052753Y-384216D02*
G54D19*
D03*
X760653Y-384216D02*
G54D19*
D03*
X493953Y-384216D02*
G54D19*
D03*
X283093Y-196392D02*
G54D19*
D03*
X66751Y-42488D02*
G54D19*
D03*
X1298412Y-703437D02*
G54D23*
D03*
X1258457Y-703396D02*
G54D23*
D03*
X1218268Y-703290D02*
G54D23*
D03*
X1178161Y-703340D02*
G54D23*
D03*
X1138326Y-703290D02*
G54D23*
D03*
X1098860Y-703218D02*
G54D23*
D03*
X1059179Y-703174D02*
G54D23*
D03*
X1019500Y-703119D02*
G54D23*
D03*
X979656Y-703119D02*
G54D23*
D03*
X900732Y-703049D02*
G54D23*
D03*
X474320Y-302993D02*
G54D24*
D03*
X429390Y-277734D02*
G54D24*
D03*
X403824Y-296342D02*
G54D24*
D03*
X194024Y-176585D02*
G54D24*
D03*
X340127Y-175768D02*
G54D24*
D03*
X1537677Y-162381D02*
G54D24*
D03*
X1237893Y-207114D02*
G54D24*
D03*
X544146Y-334390D02*
G54D24*
D03*
X328558Y-379889D02*
G54D24*
D03*
X683918Y-505052D02*
G54D24*
D03*
X823645Y-493518D02*
G54D24*
D03*
X861838Y-474501D02*
G54D24*
D03*
X1314638Y-480510D02*
G54D24*
D03*
X1327411Y-454184D02*
G54D24*
D03*
X1498902Y-473414D02*
G54D24*
D03*
X1682852Y-423696D02*
G54D24*
D03*
X1695797Y-466566D02*
G54D24*
D03*
X1816585Y-460488D02*
G54D24*
D03*
X1854390Y-441586D02*
G54D24*
D03*
X1899024Y-441220D02*
G54D24*
D03*
X1936951Y-435000D02*
G54D24*
D03*
X1962683Y-422195D02*
G54D24*
D03*
X651354Y-532752D02*
G54D24*
D03*
X493921Y-532796D02*
G54D24*
D03*
X741587Y-538857D02*
G54D24*
D03*
X1256679Y-500150D02*
G54D24*
D03*
X1383711Y-500103D02*
G54D24*
D03*
X1581111Y-505382D02*
G54D24*
D03*
X1955658Y-473392D02*
G54D24*
D03*
X1981807Y-447401D02*
G54D24*
D03*
X1994326Y-498906D02*
G54D24*
D03*
X2032361Y-491616D02*
G54D24*
D03*
X2045357Y-510951D02*
G54D24*
D03*
X2064691Y-365626D02*
G54D24*
D03*
X1962631Y-365468D02*
G54D24*
D03*
X1084818Y-564200D02*
G54D24*
D03*
X1079112Y-608732D02*
G54D24*
D03*
X982440Y-614596D02*
G54D24*
D03*
X1288923Y-595516D02*
G54D24*
D03*
X1384430Y-576306D02*
G54D24*
D03*
X1562680Y-587938D02*
G54D24*
D03*
X1752833Y-568818D02*
G54D24*
D03*
X1867439Y-562439D02*
G54D24*
D03*
X1893293Y-568536D02*
G54D24*
D03*
X1911585Y-555610D02*
G54D24*
D03*
X2052784Y-619484D02*
G54D24*
D03*
X1848424Y-631951D02*
G54D24*
D03*
X1810432Y-645178D02*
G54D24*
D03*
X1746736Y-626323D02*
G54D24*
D03*
X1930618Y-657702D02*
G54D24*
D03*
X1657718Y-614120D02*
G54D24*
D03*
X1651537Y-670856D02*
G54D24*
D03*
X1677211Y-677354D02*
G54D24*
D03*
X1600244Y-703293D02*
G54D24*
D03*
X1549390Y-677561D02*
G54D24*
D03*
X1600507Y-753582D02*
G54D24*
D03*
X1613344Y-779255D02*
G54D24*
D03*
X1664691Y-791934D02*
G54D24*
D03*
X1543613Y-766577D02*
G54D24*
D03*
X1492702Y-772570D02*
G54D24*
D03*
X1441951Y-734634D02*
G54D24*
D03*
X1232203Y-735356D02*
G54D24*
D03*
X824040Y-659567D02*
G54D24*
D03*
X785732Y-628049D02*
G54D24*
D03*
X748049Y-614512D02*
G54D24*
D03*
X754656Y-665527D02*
G54D24*
D03*
X665310Y-621688D02*
G54D24*
D03*
X684214Y-602136D02*
G54D24*
D03*
X633420Y-615339D02*
G54D24*
D03*
X646335Y-602857D02*
G54D24*
D03*
X620598Y-602360D02*
G54D24*
D03*
X601426Y-545272D02*
G54D24*
D03*
X455714Y-621832D02*
G54D24*
D03*
X417475Y-615556D02*
G54D24*
D03*
X290309Y-571031D02*
G54D24*
D03*
X354845Y-609794D02*
G54D24*
D03*
X316082Y-622165D02*
G54D24*
D03*
X328716Y-666260D02*
G54D24*
D03*
X303201Y-660872D02*
G54D24*
D03*
X170396Y-616022D02*
G54D24*
D03*
X436604Y-666285D02*
G54D24*
D03*
X474401Y-647230D02*
G54D24*
D03*
X582758Y-678938D02*
G54D24*
D03*
X595753Y-640745D02*
G54D24*
D03*
X475150Y-742488D02*
G54D24*
D03*
X525864Y-742330D02*
G54D24*
D03*
X684756Y-761098D02*
G54D24*
D03*
X716464Y-748293D02*
G54D24*
D03*
X779634Y-812439D02*
G54D24*
D03*
X734878Y-799878D02*
G54D24*
D03*
X773049Y-780244D02*
G54D24*
D03*
X748658Y-761464D02*
G54D24*
D03*
X660188Y-844271D02*
G54D24*
D03*
X582683Y-806098D02*
G54D24*
D03*
X538780Y-825610D02*
G54D24*
D03*
X462561Y-850854D02*
G54D24*
D03*
X436951Y-818780D02*
G54D24*
D03*
X310043Y-787561D02*
G54D24*
D03*
X316060Y-704617D02*
G54D24*
D03*
X182474Y-768350D02*
G54D24*
D03*
X157732Y-711237D02*
G54D24*
D03*
X227629Y-819897D02*
G54D24*
D03*
X1181014Y-767845D02*
G54D24*
D03*
X894390Y-812908D02*
G54D24*
D03*
X951144Y-811876D02*
G54D24*
D03*
X1078637Y-817448D02*
G54D24*
D03*
X1199239Y-830761D02*
G54D24*
D03*
X1397113Y-843608D02*
G54D24*
D03*
X1448660Y-830412D02*
G54D24*
D03*
X1593814Y-868144D02*
G54D24*
D03*
X1613402Y-881134D02*
G54D24*
D03*
X1683505Y-881340D02*
G54D24*
D03*
X1702887Y-855361D02*
G54D24*
D03*
X1880412Y-727732D02*
G54D24*
D03*
X1815880Y-542488D02*
G54D24*
D03*
X1893293Y-930854D02*
G54D24*
D03*
X1931585Y-1033171D02*
G54D24*
D03*
X1893293Y-1007317D02*
G54D24*
D03*
X1905976Y-1058536D02*
G54D24*
D03*
X1752927Y-969512D02*
G54D24*
D03*
X1746463Y-943902D02*
G54D24*
D03*
X1638763Y-982784D02*
G54D24*
D03*
X1619856Y-982366D02*
G54D24*
D03*
X1607013Y-1007836D02*
G54D24*
D03*
X1645830Y-944199D02*
G54D24*
D03*
X1600880Y-943766D02*
G54D24*
D03*
X1530976Y-893902D02*
G54D24*
D03*
X1537073Y-918780D02*
G54D24*
D03*
X1543658Y-944390D02*
G54D24*
D03*
X1460431Y-995140D02*
G54D24*
D03*
X1448171Y-976464D02*
G54D24*
D03*
X1435609Y-956098D02*
G54D24*
D03*
X1366079Y-994871D02*
G54D24*
D03*
X1213433Y-919756D02*
G54D24*
D03*
X1167749Y-894146D02*
G54D24*
D03*
X1136595Y-969090D02*
G54D24*
D03*
X1136066Y-994821D02*
G54D24*
D03*
X1200306Y-1020904D02*
G54D24*
D03*
X1290169Y-1072008D02*
G54D24*
D03*
X1168052Y-1098600D02*
G54D24*
D03*
X1136754Y-1045319D02*
G54D24*
D03*
X1060244Y-1021463D02*
G54D24*
D03*
X977036Y-830919D02*
G54D24*
D03*
X951746Y-856681D02*
G54D24*
D03*
X893593Y-894344D02*
G54D24*
D03*
X945732Y-894512D02*
G54D24*
D03*
X964390Y-907561D02*
G54D24*
D03*
X984146Y-920000D02*
G54D24*
D03*
X946828Y-931342D02*
G54D24*
D03*
X856492Y-943790D02*
G54D24*
D03*
X850976Y-983293D02*
G54D24*
D03*
X837417Y-995560D02*
G54D24*
D03*
X825043Y-1021358D02*
G54D24*
D03*
X907798Y-1021265D02*
G54D24*
D03*
X914136Y-1047401D02*
G54D24*
D03*
X927132Y-1072294D02*
G54D24*
D03*
X965188Y-982060D02*
G54D24*
D03*
X736098Y-984024D02*
G54D24*
D03*
X672371Y-997010D02*
G54D24*
D03*
X665854Y-940000D02*
G54D24*
D03*
X633902Y-914268D02*
G54D24*
D03*
X602317Y-900976D02*
G54D24*
D03*
X532852Y-933358D02*
G54D24*
D03*
X570188Y-983828D02*
G54D24*
D03*
X468312Y-994840D02*
G54D24*
D03*
X399392Y-1045631D02*
G54D24*
D03*
X392583Y-1023471D02*
G54D24*
D03*
X366854Y-1021656D02*
G54D24*
D03*
X360396Y-1071632D02*
G54D24*
D03*
X374268Y-971707D02*
G54D24*
D03*
X310722Y-971856D02*
G54D24*
D03*
X367835Y-927320D02*
G54D24*
D03*
X323171Y-920976D02*
G54D24*
D03*
X94639Y-996392D02*
G54D24*
D03*
X87691Y-1046031D02*
G54D24*
D03*
X158163Y-1032396D02*
G54D24*
D03*
X164649Y-1057756D02*
G54D24*
D03*
X241030Y-1032570D02*
G54D24*
D03*
X2052364Y-1153340D02*
G54D24*
D03*
X2026829Y-1191342D02*
G54D24*
D03*
X1982317Y-1229878D02*
G54D24*
D03*
X1931463Y-1230122D02*
G54D24*
D03*
X1931094Y-1160396D02*
G54D24*
D03*
X1734353Y-1198743D02*
G54D24*
D03*
X1753293Y-1148049D02*
G54D24*
D03*
X1684390Y-1148049D02*
G54D24*
D03*
X1670976Y-1160854D02*
G54D24*
D03*
X1645370Y-1108220D02*
G54D24*
D03*
X1677359Y-1090448D02*
G54D24*
D03*
X1702684Y-1084387D02*
G54D24*
D03*
X1652179Y-1058629D02*
G54D24*
D03*
X1442439Y-1122805D02*
G54D24*
D03*
X1492946Y-1192167D02*
G54D24*
D03*
X1473865Y-1191622D02*
G54D24*
D03*
X1601141Y-1192568D02*
G54D24*
D03*
X1416904Y-1161032D02*
G54D24*
D03*
X1372345Y-1166848D02*
G54D24*
D03*
X1302458Y-1174259D02*
G54D24*
D03*
X1130610Y-1161220D02*
G54D24*
D03*
X1130000Y-1135488D02*
G54D24*
D03*
X1206624Y-1210971D02*
G54D24*
D03*
X1270872Y-1282266D02*
G54D24*
D03*
X1174512Y-1282317D02*
G54D24*
D03*
X1130366Y-1288780D02*
G54D24*
D03*
X1009268Y-1187317D02*
G54D24*
D03*
X995976Y-1161220D02*
G54D24*
D03*
X964742Y-1167938D02*
G54D24*
D03*
X939550Y-1134487D02*
G54D24*
D03*
X901855Y-1147432D02*
G54D24*
D03*
X913817Y-1212683D02*
G54D24*
D03*
X856289Y-1162990D02*
G54D24*
D03*
X832165Y-1122784D02*
G54D24*
D03*
X818330Y-1090444D02*
G54D24*
D03*
X850962Y-1083172D02*
G54D24*
D03*
X812234Y-1058494D02*
G54D24*
D03*
X748685Y-1045499D02*
G54D24*
D03*
X672561Y-1137195D02*
G54D24*
D03*
X672317Y-1060854D02*
G54D24*
D03*
X608837Y-1046398D02*
G54D24*
D03*
X515010Y-1095910D02*
G54D24*
D03*
X476495Y-1123608D02*
G54D24*
D03*
X615880Y-1155642D02*
G54D24*
D03*
X602396Y-1192664D02*
G54D24*
D03*
X577600Y-1191872D02*
G54D24*
D03*
X558266Y-1185972D02*
G54D24*
D03*
X608780Y-1230854D02*
G54D24*
D03*
X641098Y-1232561D02*
G54D24*
D03*
X705000Y-1238780D02*
G54D24*
D03*
X685979Y-1295980D02*
G54D24*
D03*
X81648Y-1347560D02*
G54D24*
D03*
X113661Y-1269905D02*
G54D24*
D03*
X145356Y-1269746D02*
G54D24*
D03*
X139146Y-1230732D02*
G54D24*
D03*
X127766Y-1186704D02*
G54D24*
D03*
X165166Y-1180682D02*
G54D24*
D03*
X190206Y-1187813D02*
G54D24*
D03*
X246466Y-1232028D02*
G54D24*
D03*
X285135Y-1225848D02*
G54D24*
D03*
X292107Y-1257421D02*
G54D24*
D03*
X349484Y-1195567D02*
G54D24*
D03*
X298899Y-1173776D02*
G54D24*
D03*
X323724Y-1146932D02*
G54D24*
D03*
X298414Y-1133658D02*
G54D24*
D03*
X221133Y-1160956D02*
G54D24*
D03*
X214896Y-1134185D02*
G54D24*
D03*
X228558Y-1110000D02*
G54D24*
D03*
X81464Y-1133780D02*
G54D24*
D03*
X139268Y-1108902D02*
G54D24*
D03*
X773293Y-945366D02*
G54D24*
D03*
X2039303Y-1402493D02*
G54D24*
D03*
X1880590Y-1414558D02*
G54D24*
D03*
X1880322Y-1389356D02*
G54D24*
D03*
X1778713Y-1375952D02*
G54D24*
D03*
X1773083Y-1402225D02*
G54D24*
D03*
X1766649Y-1427158D02*
G54D24*
D03*
X1880222Y-1300333D02*
G54D24*
D03*
X1982198Y-1516434D02*
G54D24*
D03*
X2027216Y-1611650D02*
G54D24*
D03*
X1969287Y-1681791D02*
G54D24*
D03*
X1931094Y-1669112D02*
G54D24*
D03*
X1893692Y-1706514D02*
G54D24*
D03*
X1734263Y-1599699D02*
G54D24*
D03*
X1753439Y-1586228D02*
G54D24*
D03*
X1709382Y-1580998D02*
G54D24*
D03*
X1727683Y-1650366D02*
G54D24*
D03*
X1709146Y-1663171D02*
G54D24*
D03*
X1779146Y-1669146D02*
G54D24*
D03*
X1982887Y-1859691D02*
G54D24*
D03*
X1880856Y-1859287D02*
G54D24*
D03*
X1690998Y-1821728D02*
G54D24*
D03*
X1677686Y-1796054D02*
G54D24*
D03*
X1645732Y-1770732D02*
G54D24*
D03*
X1613415Y-1758536D02*
G54D24*
D03*
X1652073Y-1718902D02*
G54D24*
D03*
X1843296Y-2169905D02*
G54D24*
D03*
X1639268Y-1485000D02*
G54D24*
D03*
X1645732Y-1452561D02*
G54D24*
D03*
X1651951Y-1427439D02*
G54D24*
D03*
X1639512Y-1408902D02*
G54D24*
D03*
X1658171Y-1389146D02*
G54D24*
D03*
X1646308Y-1356751D02*
G54D24*
D03*
X1632044Y-1329968D02*
G54D24*
D03*
X1626815Y-1313011D02*
G54D24*
D03*
X1677528Y-1299858D02*
G54D24*
D03*
X1600507Y-1255325D02*
G54D24*
D03*
X1709065Y-1858336D02*
G54D24*
D03*
X1614021Y-2138454D02*
G54D24*
D03*
X1632758Y-1592646D02*
G54D24*
D03*
X1264512Y-1993536D02*
G54D24*
D03*
X1277561Y-2102195D02*
G54D24*
D03*
X1124878Y-1995084D02*
G54D24*
D03*
X1093452Y-1981670D02*
G54D24*
D03*
X1022908Y-1963471D02*
G54D24*
D03*
X1009756Y-1930610D02*
G54D24*
D03*
X877284Y-2127194D02*
G54D24*
D03*
X1264473Y-1741028D02*
G54D24*
D03*
X1086522Y-1740952D02*
G54D24*
D03*
X1035261Y-1727314D02*
G54D24*
D03*
X1003796Y-1727592D02*
G54D24*
D03*
X1149745Y-1700844D02*
G54D24*
D03*
X1569598Y-1331716D02*
G54D24*
D03*
X1562896Y-1351823D02*
G54D24*
D03*
X1556729Y-1395255D02*
G54D24*
D03*
X1544665Y-1408660D02*
G54D24*
D03*
X1512761Y-1382654D02*
G54D24*
D03*
X1530724Y-1376220D02*
G54D24*
D03*
X1518391Y-1337882D02*
G54D24*
D03*
X1474960Y-1348874D02*
G54D24*
D03*
X1448686Y-1356381D02*
G54D24*
D03*
X1423485Y-1351019D02*
G54D24*
D03*
X1423485Y-1377292D02*
G54D24*
D03*
X1447882Y-1300616D02*
G54D24*
D03*
X1423217Y-1300885D02*
G54D24*
D03*
X1403646Y-1300885D02*
G54D24*
D03*
X1518350Y-1446701D02*
G54D24*
D03*
X1474021Y-1415361D02*
G54D24*
D03*
X1467629Y-1466288D02*
G54D24*
D03*
X1493402Y-1504227D02*
G54D24*
D03*
X1455670Y-1516186D02*
G54D24*
D03*
X1353049Y-1605854D02*
G54D24*
D03*
X1066751Y-1580998D02*
G54D24*
D03*
X984342Y-1626165D02*
G54D24*
D03*
X971981Y-1587496D02*
G54D24*
D03*
X895753Y-1593360D02*
G54D24*
D03*
X774618Y-1612525D02*
G54D24*
D03*
X520469Y-1174071D02*
G54D24*
D03*
X488762Y-1238049D02*
G54D24*
D03*
X463058Y-1237204D02*
G54D24*
D03*
X386951Y-1287683D02*
G54D24*
D03*
X451220Y-1325122D02*
G54D24*
D03*
X367842Y-1326604D02*
G54D24*
D03*
X526339Y-1364675D02*
G54D24*
D03*
X437750Y-1364675D02*
G54D24*
D03*
X563621Y-1345084D02*
G54D24*
D03*
X596642Y-1344897D02*
G54D24*
D03*
X571032Y-1307936D02*
G54D24*
D03*
X589324Y-1307842D02*
G54D24*
D03*
X558070Y-1267372D02*
G54D24*
D03*
X145515Y-1352314D02*
G54D24*
D03*
X190364Y-1300967D02*
G54D24*
D03*
X298606Y-1390666D02*
G54D24*
D03*
X368019Y-1384326D02*
G54D24*
D03*
X443918Y-1427114D02*
G54D24*
D03*
X450309Y-1452062D02*
G54D24*
D03*
X455876Y-1477629D02*
G54D24*
D03*
X470309Y-1389588D02*
G54D24*
D03*
X540000Y-1420516D02*
G54D24*
D03*
X534021Y-1446082D02*
G54D24*
D03*
X527010Y-1464846D02*
G54D24*
D03*
X596495Y-1490412D02*
G54D24*
D03*
X622551Y-1466025D02*
G54D24*
D03*
X597526Y-1433299D02*
G54D24*
D03*
X628248Y-1414124D02*
G54D24*
D03*
X609484Y-1383608D02*
G54D24*
D03*
X679430Y-1407148D02*
G54D24*
D03*
X551379Y-1541220D02*
G54D24*
D03*
X476418Y-1541696D02*
G54D24*
D03*
X399556Y-1542012D02*
G54D24*
D03*
X387353Y-1568637D02*
G54D24*
D03*
X470396Y-1580840D02*
G54D24*
D03*
X533629Y-1573550D02*
G54D24*
D03*
X603415Y-1612073D02*
G54D24*
D03*
X641829Y-1624756D02*
G54D24*
D03*
X476567Y-1625384D02*
G54D24*
D03*
X1632805Y-1552805D02*
G54D24*
D03*
X94820Y-1466638D02*
G54D24*
D03*
X88668Y-1492176D02*
G54D24*
D03*
X89048Y-1517720D02*
G54D24*
D03*
X209033Y-1465195D02*
G54D24*
D03*
X215172Y-1503396D02*
G54D24*
D03*
X228630Y-1529043D02*
G54D24*
D03*
X228255Y-1554278D02*
G54D24*
D03*
X184024Y-1580000D02*
G54D24*
D03*
X208780Y-1580122D02*
G54D24*
D03*
X241284Y-1574358D02*
G54D24*
D03*
X291013Y-1586454D02*
G54D24*
D03*
X921951Y-1700610D02*
G54D24*
D03*
X832005Y-1801088D02*
G54D24*
D03*
X806772Y-1783171D02*
G54D24*
D03*
X756926Y-1841379D02*
G54D24*
D03*
X737116Y-1829493D02*
G54D24*
D03*
X756767Y-1816973D02*
G54D24*
D03*
X750122Y-1980244D02*
G54D24*
D03*
X673902Y-2024146D02*
G54D24*
D03*
X679268Y-1999146D02*
G54D24*
D03*
X718052Y-2089510D02*
G54D24*
D03*
X597845Y-2151148D02*
G54D24*
D03*
X617805Y-2177683D02*
G54D24*
D03*
X547200Y-2100548D02*
G54D24*
D03*
X470844Y-2013002D02*
G54D24*
D03*
X470469Y-2037861D02*
G54D24*
D03*
X312026Y-2178386D02*
G54D24*
D03*
X343546Y-2178105D02*
G54D24*
D03*
X388105Y-2100526D02*
G54D24*
D03*
X369634Y-2063292D02*
G54D24*
D03*
X369390Y-2024390D02*
G54D24*
D03*
X387927Y-2006098D02*
G54D24*
D03*
X381951Y-1973414D02*
G54D24*
D03*
X394268Y-1950122D02*
G54D24*
D03*
X304756Y-1625610D02*
G54D24*
D03*
X279268Y-1625488D02*
G54D24*
D03*
X361829Y-1663049D02*
G54D24*
D03*
X394109Y-1681013D02*
G54D24*
D03*
X140346Y-1670245D02*
G54D24*
D03*
X126854Y-1625729D02*
G54D24*
D03*
X152251Y-1625584D02*
G54D24*
D03*
X521268Y-1681474D02*
G54D24*
D03*
X534268Y-1783414D02*
G54D24*
D03*
X546696Y-1732438D02*
G54D24*
D03*
X674041Y-1721094D02*
G54D24*
D03*
X679588Y-1705087D02*
G54D24*
D03*
X381342Y-1820854D02*
G54D24*
D03*
X375628Y-1775291D02*
G54D24*
D03*
X311745Y-1799024D02*
G54D24*
D03*
X299076Y-1846868D02*
G54D24*
D03*
X215497Y-1821726D02*
G54D24*
D03*
X145990Y-1873708D02*
G54D24*
D03*
X203994Y-1886862D02*
G54D24*
D03*
X140285Y-1911426D02*
G54D24*
D03*
X178637Y-1930444D02*
G54D24*
D03*
X463902Y-1860366D02*
G54D24*
D03*
X470732Y-1892073D02*
G54D24*
D03*
X534634Y-1905366D02*
G54D24*
D03*
X534422Y-1948986D02*
G54D24*
D03*
X635000Y-1896220D02*
G54D24*
D03*
X610366Y-2024268D02*
G54D24*
D03*
X668653Y-2062615D02*
G54D24*
D03*
X222814Y-2112670D02*
G54D24*
D03*
X222598Y-2075224D02*
G54D24*
D03*
X743171Y-1706708D02*
G54D24*
D03*
X781098Y-1694024D02*
G54D24*
D03*
X621804Y-1564690D02*
G54D24*
D03*
X1671506Y-1984960D02*
G54D24*
D03*
X294486Y-119245D02*
G54D22*
D03*
X313911Y-119225D02*
G54D22*
D03*
X294486Y-93845D02*
G54D22*
D03*
X313911Y-93825D02*
G54D22*
D03*
X341021Y-93739D02*
G54D22*
D03*
X360445Y-93719D02*
G54D22*
D03*
X334594Y-119225D02*
G54D22*
D03*
X360654Y-119219D02*
G54D22*
D03*
X259156Y-57859D02*
G54D20*
D03*
X259156Y-58860D02*
G54D20*
D03*
X259156Y-59860D02*
G54D20*
D03*
X259156Y-60860D02*
G54D20*
D03*
X259156Y-61860D02*
G54D20*
D03*
X259156Y-62860D02*
G54D20*
D03*
X259156Y-63860D02*
G54D20*
D03*
X259156Y-64860D02*
G54D20*
D03*
X259156Y-65860D02*
G54D20*
D03*
X259156Y-66860D02*
G54D20*
D03*
X259156Y-67860D02*
G54D20*
D03*
X259156Y-68859D02*
G54D20*
D03*
X394180Y-58047D02*
G54D20*
D03*
X394180Y-59047D02*
G54D20*
D03*
X394180Y-60047D02*
G54D20*
D03*
X394180Y-61047D02*
G54D20*
D03*
X394180Y-62047D02*
G54D20*
D03*
X394180Y-63047D02*
G54D20*
D03*
X394180Y-64047D02*
G54D20*
D03*
X394180Y-65047D02*
G54D20*
D03*
X394180Y-66047D02*
G54D20*
D03*
X394180Y-67047D02*
G54D20*
D03*
X394180Y-68047D02*
G54D20*
D03*
X394180Y-69047D02*
G54D20*
D03*
X332861Y-55538D02*
G54D20*
D03*
X331860Y-55538D02*
G54D20*
D03*
X330860Y-55538D02*
G54D20*
D03*
X329860Y-55538D02*
G54D20*
D03*
X328860Y-55538D02*
G54D20*
D03*
X327860Y-55538D02*
G54D20*
D03*
X326860Y-55538D02*
G54D20*
D03*
X325860Y-55538D02*
G54D20*
D03*
X324860Y-55538D02*
G54D20*
D03*
X323860Y-55538D02*
G54D20*
D03*
X322860Y-55538D02*
G54D20*
D03*
X321861Y-55538D02*
G54D20*
D03*
G36*
X1325077Y-331132D02*
X1341077Y-331132D01*
X1341077Y-347132D01*
X1325077Y-347132D01*
X1325077Y-331132D01*
G37*
X1358477Y-339132D02*
G54D10*
D03*
X1383877Y-339132D02*
G54D10*
D03*
X1409277Y-339132D02*
G54D10*
D03*
X1434677Y-339132D02*
G54D10*
D03*
X1460077Y-339132D02*
G54D10*
D03*
X1485477Y-339132D02*
G54D10*
D03*
X1510877Y-339132D02*
G54D10*
D03*
X1536277Y-339132D02*
G54D10*
D03*
X1561677Y-339132D02*
G54D10*
D03*
X1561677Y-262932D02*
G54D10*
D03*
X1536277Y-262932D02*
G54D10*
D03*
X1510877Y-262932D02*
G54D10*
D03*
X1485477Y-262932D02*
G54D10*
D03*
X1460077Y-262932D02*
G54D10*
D03*
X1434677Y-262932D02*
G54D10*
D03*
X1409277Y-262932D02*
G54D10*
D03*
X1383877Y-262932D02*
G54D10*
D03*
X1358477Y-262932D02*
G54D10*
D03*
X1333077Y-262932D02*
G54D10*
D03*
G36*
X510746Y-478790D02*
X526746Y-478790D01*
X526746Y-494790D01*
X510746Y-494790D01*
X510746Y-478790D01*
G37*
X544146Y-486790D02*
G54D10*
D03*
X569546Y-486790D02*
G54D10*
D03*
X594946Y-486790D02*
G54D10*
D03*
X620346Y-486790D02*
G54D10*
D03*
X645746Y-486790D02*
G54D10*
D03*
X671146Y-486790D02*
G54D10*
D03*
X696546Y-486790D02*
G54D10*
D03*
X721946Y-486790D02*
G54D10*
D03*
X747346Y-486790D02*
G54D10*
D03*
X747346Y-410590D02*
G54D10*
D03*
X721946Y-410590D02*
G54D10*
D03*
X696546Y-410590D02*
G54D10*
D03*
X671146Y-410590D02*
G54D10*
D03*
X645746Y-410590D02*
G54D10*
D03*
X620346Y-410590D02*
G54D10*
D03*
X594946Y-410590D02*
G54D10*
D03*
X569546Y-410590D02*
G54D10*
D03*
X544146Y-410590D02*
G54D10*
D03*
X518746Y-410590D02*
G54D10*
D03*
G36*
X231346Y-478790D02*
X247346Y-478790D01*
X247346Y-494790D01*
X231346Y-494790D01*
X231346Y-478790D01*
G37*
X264746Y-486790D02*
G54D10*
D03*
X290146Y-486790D02*
G54D10*
D03*
X315546Y-486790D02*
G54D10*
D03*
X340946Y-486790D02*
G54D10*
D03*
X366346Y-486790D02*
G54D10*
D03*
X391746Y-486790D02*
G54D10*
D03*
X417146Y-486790D02*
G54D10*
D03*
X442546Y-486790D02*
G54D10*
D03*
X467946Y-486790D02*
G54D10*
D03*
X467946Y-410590D02*
G54D10*
D03*
X442546Y-410590D02*
G54D10*
D03*
X417146Y-410590D02*
G54D10*
D03*
X391746Y-410590D02*
G54D10*
D03*
X366346Y-410590D02*
G54D10*
D03*
X340946Y-410590D02*
G54D10*
D03*
X315546Y-410590D02*
G54D10*
D03*
X290146Y-410590D02*
G54D10*
D03*
X264746Y-410590D02*
G54D10*
D03*
X239346Y-410590D02*
G54D10*
D03*
X1232112Y-575424D02*
G54D12*
D03*
X1359112Y-575424D02*
G54D12*
D03*
X1232112Y-613524D02*
G54D12*
D03*
X1359112Y-613524D02*
G54D12*
D03*
X99538Y-693536D02*
G54D12*
D03*
X226539Y-693536D02*
G54D12*
D03*
X226791Y-731026D02*
G54D12*
D03*
X99791Y-731027D02*
G54D12*
D03*
X252683Y-685244D02*
G54D12*
D03*
X379683Y-685244D02*
G54D12*
D03*
X379682Y-768344D02*
G54D12*
D03*
X252683Y-768344D02*
G54D12*
D03*
X252683Y-806444D02*
G54D12*
D03*
X379683Y-806444D02*
G54D12*
D03*
X227000Y-882782D02*
G54D12*
D03*
X99999Y-882782D02*
G54D12*
D03*
X259024Y-883171D02*
G54D12*
D03*
X386024Y-883171D02*
G54D12*
D03*
X532165Y-882577D02*
G54D12*
D03*
X659165Y-882578D02*
G54D12*
D03*
X696375Y-883243D02*
G54D12*
D03*
X797975Y-883243D02*
G54D12*
D03*
X570265Y-958777D02*
G54D12*
D03*
X697265Y-958778D02*
G54D12*
D03*
X721775Y-959443D02*
G54D12*
D03*
X823375Y-959443D02*
G54D12*
D03*
X697265Y-920677D02*
G54D12*
D03*
X824265Y-920678D02*
G54D12*
D03*
G36*
X334624Y-1167188D02*
X334624Y-1151188D01*
X350624Y-1151188D01*
X350624Y-1167188D01*
X334624Y-1167188D01*
G37*
X342624Y-1133788D02*
G54D10*
D03*
X342624Y-1108388D02*
G54D10*
D03*
X342624Y-1082988D02*
G54D10*
D03*
X342624Y-1057588D02*
G54D10*
D03*
X342624Y-1032188D02*
G54D10*
D03*
X342624Y-1006788D02*
G54D10*
D03*
X342624Y-981388D02*
G54D10*
D03*
X342624Y-955988D02*
G54D10*
D03*
X342624Y-930589D02*
G54D10*
D03*
X266424Y-930588D02*
G54D10*
D03*
X266424Y-955988D02*
G54D10*
D03*
X266424Y-981388D02*
G54D10*
D03*
X266424Y-1006788D02*
G54D10*
D03*
X266424Y-1032188D02*
G54D10*
D03*
X266424Y-1057588D02*
G54D10*
D03*
X266424Y-1082988D02*
G54D10*
D03*
X266424Y-1108388D02*
G54D10*
D03*
X266424Y-1133788D02*
G54D10*
D03*
X266424Y-1159188D02*
G54D10*
D03*
G36*
X487024Y-1167188D02*
X487024Y-1151188D01*
X503024Y-1151188D01*
X503024Y-1167188D01*
X487024Y-1167188D01*
G37*
X495024Y-1133788D02*
G54D10*
D03*
X495024Y-1108388D02*
G54D10*
D03*
X495024Y-1082988D02*
G54D10*
D03*
X495024Y-1057588D02*
G54D10*
D03*
X495024Y-1032188D02*
G54D10*
D03*
X495024Y-1006788D02*
G54D10*
D03*
X495024Y-981388D02*
G54D10*
D03*
X495024Y-955988D02*
G54D10*
D03*
X495024Y-930589D02*
G54D10*
D03*
X418824Y-930588D02*
G54D10*
D03*
X418824Y-955988D02*
G54D10*
D03*
X418824Y-981388D02*
G54D10*
D03*
X418824Y-1006788D02*
G54D10*
D03*
X418824Y-1032188D02*
G54D10*
D03*
X418824Y-1057588D02*
G54D10*
D03*
X418824Y-1082988D02*
G54D10*
D03*
X418824Y-1108388D02*
G54D10*
D03*
X418824Y-1133788D02*
G54D10*
D03*
X418824Y-1159188D02*
G54D10*
D03*
G36*
X1249400Y-1167834D02*
X1249400Y-1151834D01*
X1265400Y-1151834D01*
X1265400Y-1167834D01*
X1249400Y-1167834D01*
G37*
X1257400Y-1134434D02*
G54D10*
D03*
X1257400Y-1109034D02*
G54D10*
D03*
X1257400Y-1083634D02*
G54D10*
D03*
X1257400Y-1058234D02*
G54D10*
D03*
X1257400Y-1032834D02*
G54D10*
D03*
X1257400Y-1007434D02*
G54D10*
D03*
X1257400Y-982034D02*
G54D10*
D03*
X1257400Y-956634D02*
G54D10*
D03*
X1257400Y-931234D02*
G54D10*
D03*
X1257400Y-905834D02*
G54D10*
D03*
X1257400Y-880434D02*
G54D10*
D03*
X1257400Y-855034D02*
G54D10*
D03*
X1257400Y-829634D02*
G54D10*
D03*
X1105000Y-829634D02*
G54D10*
D03*
X1105000Y-855034D02*
G54D10*
D03*
X1105000Y-880434D02*
G54D10*
D03*
X1105000Y-905834D02*
G54D10*
D03*
X1105000Y-931234D02*
G54D10*
D03*
X1105000Y-956634D02*
G54D10*
D03*
X1105000Y-982034D02*
G54D10*
D03*
X1105000Y-1007434D02*
G54D10*
D03*
X1105000Y-1032834D02*
G54D10*
D03*
X1105000Y-1058234D02*
G54D10*
D03*
X1105000Y-1083634D02*
G54D10*
D03*
X1105000Y-1109034D02*
G54D10*
D03*
X1105000Y-1134434D02*
G54D10*
D03*
X1105000Y-1159834D02*
G54D10*
D03*
X1993463Y-1049750D02*
G54D12*
D03*
X2095063Y-1049750D02*
G54D12*
D03*
X1956934Y-1210348D02*
G54D12*
D03*
X2083933Y-1210348D02*
G54D12*
D03*
X1804450Y-1210268D02*
G54D12*
D03*
X1906050Y-1210268D02*
G54D12*
D03*
X1879930Y-1269234D02*
G54D12*
D03*
X2083131Y-1269234D02*
G54D12*
D03*
X2083934Y-1324648D02*
G54D12*
D03*
X1956934Y-1324648D02*
G54D12*
D03*
X1715591Y-1273414D02*
G54D12*
D03*
X1817191Y-1273414D02*
G54D12*
D03*
X1563150Y-1210268D02*
G54D12*
D03*
X1664750Y-1210268D02*
G54D12*
D03*
X1525091Y-1273414D02*
G54D12*
D03*
X1626691Y-1273414D02*
G54D12*
D03*
X1334550Y-1210268D02*
G54D12*
D03*
X1436150Y-1210268D02*
G54D12*
D03*
X1359721Y-1273066D02*
G54D12*
D03*
X1486720Y-1273066D02*
G54D12*
D03*
X1055150Y-1210268D02*
G54D12*
D03*
X1156750Y-1210268D02*
G54D12*
D03*
X788450Y-1197568D02*
G54D12*
D03*
X890050Y-1197568D02*
G54D12*
D03*
X703914Y-1275416D02*
G54D12*
D03*
X832162Y-1275415D02*
G54D12*
D03*
X571584Y-1212715D02*
G54D12*
D03*
X673184Y-1212715D02*
G54D12*
D03*
X266784Y-1212715D02*
G54D12*
D03*
X368384Y-1212715D02*
G54D12*
D03*
X114384Y-1212715D02*
G54D12*
D03*
X215984Y-1212715D02*
G54D12*
D03*
G36*
X182846Y-1562110D02*
X182846Y-1546110D01*
X198846Y-1546110D01*
X198846Y-1562110D01*
X182846Y-1562110D01*
G37*
X190846Y-1528710D02*
G54D10*
D03*
X190846Y-1503310D02*
G54D10*
D03*
X190846Y-1477910D02*
G54D10*
D03*
X190846Y-1452510D02*
G54D10*
D03*
X190846Y-1427110D02*
G54D10*
D03*
X190846Y-1401710D02*
G54D10*
D03*
X190846Y-1376310D02*
G54D10*
D03*
X190846Y-1350910D02*
G54D10*
D03*
X190846Y-1325511D02*
G54D10*
D03*
X114646Y-1325510D02*
G54D10*
D03*
X114646Y-1350910D02*
G54D10*
D03*
X114646Y-1376310D02*
G54D10*
D03*
X114646Y-1401710D02*
G54D10*
D03*
X114646Y-1427110D02*
G54D10*
D03*
X114646Y-1452510D02*
G54D10*
D03*
X114646Y-1477910D02*
G54D10*
D03*
X114646Y-1503310D02*
G54D10*
D03*
X114646Y-1528710D02*
G54D10*
D03*
X114646Y-1554110D02*
G54D10*
D03*
G36*
X486954Y-1562100D02*
X486954Y-1546100D01*
X502954Y-1546100D01*
X502954Y-1562100D01*
X486954Y-1562100D01*
G37*
X494954Y-1528700D02*
G54D10*
D03*
X494954Y-1503300D02*
G54D10*
D03*
X494954Y-1477900D02*
G54D10*
D03*
X494954Y-1452500D02*
G54D10*
D03*
X494954Y-1427100D02*
G54D10*
D03*
X494954Y-1401700D02*
G54D10*
D03*
X494954Y-1376300D02*
G54D10*
D03*
X494954Y-1350900D02*
G54D10*
D03*
X494954Y-1325500D02*
G54D10*
D03*
X494954Y-1300100D02*
G54D10*
D03*
X494955Y-1274700D02*
G54D10*
D03*
X418754Y-1274700D02*
G54D10*
D03*
X418754Y-1300100D02*
G54D10*
D03*
X418754Y-1325500D02*
G54D10*
D03*
X418754Y-1350900D02*
G54D10*
D03*
X418754Y-1376300D02*
G54D10*
D03*
X418754Y-1401700D02*
G54D10*
D03*
X418754Y-1427100D02*
G54D10*
D03*
X418754Y-1452500D02*
G54D10*
D03*
X418754Y-1477900D02*
G54D10*
D03*
X418754Y-1503300D02*
G54D10*
D03*
X418754Y-1528700D02*
G54D10*
D03*
X418755Y-1554100D02*
G54D10*
D03*
G36*
X1668746Y-1562110D02*
X1668746Y-1546110D01*
X1684746Y-1546110D01*
X1684746Y-1562110D01*
X1668746Y-1562110D01*
G37*
X1676746Y-1528710D02*
G54D10*
D03*
X1676746Y-1503310D02*
G54D10*
D03*
X1676746Y-1477910D02*
G54D10*
D03*
X1676746Y-1452510D02*
G54D10*
D03*
X1676746Y-1427110D02*
G54D10*
D03*
X1676746Y-1401710D02*
G54D10*
D03*
X1676746Y-1376310D02*
G54D10*
D03*
X1676746Y-1350910D02*
G54D10*
D03*
X1676747Y-1325511D02*
G54D10*
D03*
X1600546Y-1325510D02*
G54D10*
D03*
X1600546Y-1350910D02*
G54D10*
D03*
X1600546Y-1376310D02*
G54D10*
D03*
X1600546Y-1401710D02*
G54D10*
D03*
X1600546Y-1427110D02*
G54D10*
D03*
X1600546Y-1452510D02*
G54D10*
D03*
X1600546Y-1477910D02*
G54D10*
D03*
X1600546Y-1503310D02*
G54D10*
D03*
X1600546Y-1528710D02*
G54D10*
D03*
X1600547Y-1554110D02*
G54D10*
D03*
G36*
X1795746Y-1562110D02*
X1795746Y-1546110D01*
X1811746Y-1546110D01*
X1811746Y-1562110D01*
X1795746Y-1562110D01*
G37*
X1803746Y-1528710D02*
G54D10*
D03*
X1803746Y-1503310D02*
G54D10*
D03*
X1803746Y-1477910D02*
G54D10*
D03*
X1803746Y-1452510D02*
G54D10*
D03*
X1803746Y-1427110D02*
G54D10*
D03*
X1803746Y-1401710D02*
G54D10*
D03*
X1803746Y-1376310D02*
G54D10*
D03*
X1803746Y-1350910D02*
G54D10*
D03*
X1803747Y-1325511D02*
G54D10*
D03*
X1727546Y-1325510D02*
G54D10*
D03*
X1727546Y-1350910D02*
G54D10*
D03*
X1727546Y-1376310D02*
G54D10*
D03*
X1727546Y-1401710D02*
G54D10*
D03*
X1727546Y-1427110D02*
G54D10*
D03*
X1727546Y-1452510D02*
G54D10*
D03*
X1727546Y-1477910D02*
G54D10*
D03*
X1727546Y-1503310D02*
G54D10*
D03*
X1727546Y-1528710D02*
G54D10*
D03*
X1727547Y-1554110D02*
G54D10*
D03*
G36*
X1923121Y-1562066D02*
X1923121Y-1546066D01*
X1939121Y-1546066D01*
X1939121Y-1562066D01*
X1923121Y-1562066D01*
G37*
X1931121Y-1528666D02*
G54D10*
D03*
X1931121Y-1503266D02*
G54D10*
D03*
X1931121Y-1477866D02*
G54D10*
D03*
X1931121Y-1452466D02*
G54D10*
D03*
X1931121Y-1427066D02*
G54D10*
D03*
X1931121Y-1401666D02*
G54D10*
D03*
X1931121Y-1376266D02*
G54D10*
D03*
X1931121Y-1350866D02*
G54D10*
D03*
X1931122Y-1325466D02*
G54D10*
D03*
X1854921Y-1325466D02*
G54D10*
D03*
X1854921Y-1350866D02*
G54D10*
D03*
X1854921Y-1376266D02*
G54D10*
D03*
X1854921Y-1401666D02*
G54D10*
D03*
X1854921Y-1427066D02*
G54D10*
D03*
X1854921Y-1452466D02*
G54D10*
D03*
X1854921Y-1477866D02*
G54D10*
D03*
X1854921Y-1503266D02*
G54D10*
D03*
X1854921Y-1528666D02*
G54D10*
D03*
X1854922Y-1554066D02*
G54D10*
D03*
G36*
X2075838Y-1879477D02*
X2075838Y-1863477D01*
X2091838Y-1863477D01*
X2091838Y-1879477D01*
X2075838Y-1879477D01*
G37*
X2083838Y-1846077D02*
G54D10*
D03*
X2083838Y-1820677D02*
G54D10*
D03*
X2083838Y-1795277D02*
G54D10*
D03*
X2083838Y-1769877D02*
G54D10*
D03*
X2083838Y-1744477D02*
G54D10*
D03*
X2083838Y-1719077D02*
G54D10*
D03*
X2083839Y-1693677D02*
G54D10*
D03*
X2007639Y-1693677D02*
G54D10*
D03*
X2007639Y-1719077D02*
G54D10*
D03*
X2007639Y-1744477D02*
G54D10*
D03*
X2007639Y-1769877D02*
G54D10*
D03*
X2007639Y-1795277D02*
G54D10*
D03*
X2007639Y-1820677D02*
G54D10*
D03*
X2007639Y-1846077D02*
G54D10*
D03*
X2007639Y-1871477D02*
G54D10*
D03*
X1969492Y-1631146D02*
G54D12*
D03*
X2071092Y-1631146D02*
G54D12*
D03*
X1842492Y-1631146D02*
G54D12*
D03*
X1944092Y-1631146D02*
G54D12*
D03*
X1537692Y-1643846D02*
G54D12*
D03*
X1639292Y-1643846D02*
G54D12*
D03*
X1309092Y-1643846D02*
G54D12*
D03*
X1410692Y-1643846D02*
G54D12*
D03*
X1080492Y-1643846D02*
G54D12*
D03*
X1182092Y-1643846D02*
G54D12*
D03*
X851892Y-1643846D02*
G54D12*
D03*
X953492Y-1643846D02*
G54D12*
D03*
X559024Y-1646934D02*
G54D12*
D03*
X660624Y-1646934D02*
G54D12*
D03*
X419324Y-1646934D02*
G54D12*
D03*
X520924Y-1646934D02*
G54D12*
D03*
X114524Y-1646934D02*
G54D12*
D03*
X216124Y-1646934D02*
G54D12*
D03*
X227714Y-1607870D02*
G54D12*
D03*
X100713Y-1607870D02*
G54D12*
D03*
G36*
X182654Y-1854588D02*
X182654Y-1838588D01*
X198654Y-1838588D01*
X198654Y-1854588D01*
X182654Y-1854588D01*
G37*
X190654Y-1821188D02*
G54D10*
D03*
X190654Y-1795788D02*
G54D10*
D03*
X190654Y-1770388D02*
G54D10*
D03*
X190654Y-1744988D02*
G54D10*
D03*
X190654Y-1719588D02*
G54D10*
D03*
X190654Y-1694188D02*
G54D10*
D03*
X114454Y-1694188D02*
G54D10*
D03*
X114454Y-1719588D02*
G54D10*
D03*
X114454Y-1744988D02*
G54D10*
D03*
X114454Y-1770388D02*
G54D10*
D03*
X114454Y-1795788D02*
G54D10*
D03*
X114454Y-1821188D02*
G54D10*
D03*
X114454Y-1846588D02*
G54D10*
D03*
G36*
X335935Y-1879918D02*
X335935Y-1863918D01*
X351935Y-1863918D01*
X351935Y-1879918D01*
X335935Y-1879918D01*
G37*
X343935Y-1846518D02*
G54D10*
D03*
X343935Y-1821118D02*
G54D10*
D03*
X343935Y-1795718D02*
G54D10*
D03*
X343935Y-1770318D02*
G54D10*
D03*
X343935Y-1744918D02*
G54D10*
D03*
X343935Y-1719518D02*
G54D10*
D03*
X343936Y-1694118D02*
G54D10*
D03*
X267735Y-1694118D02*
G54D10*
D03*
X267735Y-1719518D02*
G54D10*
D03*
X267735Y-1744918D02*
G54D10*
D03*
X267735Y-1770318D02*
G54D10*
D03*
X267735Y-1795718D02*
G54D10*
D03*
X267735Y-1821118D02*
G54D10*
D03*
X267735Y-1846518D02*
G54D10*
D03*
X267736Y-1871918D02*
G54D10*
D03*
G36*
X488335Y-1879918D02*
X488335Y-1863918D01*
X504335Y-1863918D01*
X504335Y-1879918D01*
X488335Y-1879918D01*
G37*
X496335Y-1846518D02*
G54D10*
D03*
X496335Y-1821118D02*
G54D10*
D03*
X496335Y-1795718D02*
G54D10*
D03*
X496335Y-1770318D02*
G54D10*
D03*
X496335Y-1744918D02*
G54D10*
D03*
X496335Y-1719518D02*
G54D10*
D03*
X496336Y-1694118D02*
G54D10*
D03*
X420135Y-1694118D02*
G54D10*
D03*
X420135Y-1719518D02*
G54D10*
D03*
X420135Y-1744918D02*
G54D10*
D03*
X420135Y-1770318D02*
G54D10*
D03*
X420135Y-1795718D02*
G54D10*
D03*
X420135Y-1821118D02*
G54D10*
D03*
X420135Y-1846518D02*
G54D10*
D03*
X420136Y-1871918D02*
G54D10*
D03*
G36*
X640735Y-1879918D02*
X640735Y-1863918D01*
X656735Y-1863918D01*
X656735Y-1879918D01*
X640735Y-1879918D01*
G37*
X648735Y-1846518D02*
G54D10*
D03*
X648735Y-1821118D02*
G54D10*
D03*
X648735Y-1795718D02*
G54D10*
D03*
X648735Y-1770318D02*
G54D10*
D03*
X648735Y-1744918D02*
G54D10*
D03*
X648735Y-1719518D02*
G54D10*
D03*
X648736Y-1694118D02*
G54D10*
D03*
X572535Y-1694118D02*
G54D10*
D03*
X572535Y-1719518D02*
G54D10*
D03*
X572535Y-1744918D02*
G54D10*
D03*
X572535Y-1770318D02*
G54D10*
D03*
X572535Y-1795718D02*
G54D10*
D03*
X572535Y-1821118D02*
G54D10*
D03*
X572535Y-1846518D02*
G54D10*
D03*
X572536Y-1871918D02*
G54D10*
D03*
G36*
X1923044Y-1879698D02*
X1923044Y-1863698D01*
X1939044Y-1863698D01*
X1939044Y-1879698D01*
X1923044Y-1879698D01*
G37*
X1931044Y-1846298D02*
G54D10*
D03*
X1931044Y-1820898D02*
G54D10*
D03*
X1931044Y-1795498D02*
G54D10*
D03*
X1931044Y-1770098D02*
G54D10*
D03*
X1931044Y-1744698D02*
G54D10*
D03*
X1931044Y-1719298D02*
G54D10*
D03*
X1931044Y-1693898D02*
G54D10*
D03*
X1854844Y-1693898D02*
G54D10*
D03*
X1854844Y-1719298D02*
G54D10*
D03*
X1854844Y-1744698D02*
G54D10*
D03*
X1854844Y-1770098D02*
G54D10*
D03*
X1854844Y-1795498D02*
G54D10*
D03*
X1854844Y-1820898D02*
G54D10*
D03*
X1854844Y-1846298D02*
G54D10*
D03*
X1854844Y-1871698D02*
G54D10*
D03*
X1728770Y-1922010D02*
G54D12*
D03*
X1830370Y-1922010D02*
G54D12*
D03*
X1537732Y-1953918D02*
G54D12*
D03*
X1639332Y-1953918D02*
G54D12*
D03*
X1309132Y-1953918D02*
G54D12*
D03*
X1410732Y-1953918D02*
G54D12*
D03*
X1080532Y-1953918D02*
G54D12*
D03*
X1182132Y-1953918D02*
G54D12*
D03*
X839232Y-1953918D02*
G54D12*
D03*
X940832Y-1953918D02*
G54D12*
D03*
X559832Y-1928518D02*
G54D12*
D03*
X661432Y-1928518D02*
G54D12*
D03*
X420132Y-1928518D02*
G54D12*
D03*
X521732Y-1928518D02*
G54D12*
D03*
X267732Y-1928518D02*
G54D12*
D03*
X369332Y-1928518D02*
G54D12*
D03*
G36*
X183024Y-2133352D02*
X183024Y-2117352D01*
X199024Y-2117352D01*
X199024Y-2133352D01*
X183024Y-2133352D01*
G37*
X191024Y-2099952D02*
G54D10*
D03*
X191024Y-2074552D02*
G54D10*
D03*
X191024Y-2049152D02*
G54D10*
D03*
X191024Y-2023752D02*
G54D10*
D03*
X191024Y-1998352D02*
G54D10*
D03*
X191024Y-1972952D02*
G54D10*
D03*
X114824Y-1972953D02*
G54D10*
D03*
X114824Y-1998352D02*
G54D10*
D03*
X114824Y-2023752D02*
G54D10*
D03*
X114824Y-2049152D02*
G54D10*
D03*
X114824Y-2074552D02*
G54D10*
D03*
X114824Y-2099952D02*
G54D10*
D03*
X114824Y-2125352D02*
G54D10*
D03*
G36*
X335845Y-2159148D02*
X335845Y-2143148D01*
X351845Y-2143148D01*
X351845Y-2159148D01*
X335845Y-2159148D01*
G37*
X343845Y-2125748D02*
G54D10*
D03*
X343845Y-2100348D02*
G54D10*
D03*
X343845Y-2074948D02*
G54D10*
D03*
X343845Y-2049548D02*
G54D10*
D03*
X343845Y-2024148D02*
G54D10*
D03*
X343845Y-1998748D02*
G54D10*
D03*
X343845Y-1973348D02*
G54D10*
D03*
X267645Y-1973348D02*
G54D10*
D03*
X267645Y-1998748D02*
G54D10*
D03*
X267645Y-2024148D02*
G54D10*
D03*
X267645Y-2049548D02*
G54D10*
D03*
X267645Y-2074948D02*
G54D10*
D03*
X267645Y-2100348D02*
G54D10*
D03*
X267645Y-2125748D02*
G54D10*
D03*
X267645Y-2151149D02*
G54D10*
D03*
G36*
X488245Y-2159148D02*
X488245Y-2143148D01*
X504245Y-2143148D01*
X504245Y-2159148D01*
X488245Y-2159148D01*
G37*
X496245Y-2125748D02*
G54D10*
D03*
X496245Y-2100348D02*
G54D10*
D03*
X496245Y-2074948D02*
G54D10*
D03*
X496245Y-2049548D02*
G54D10*
D03*
X496245Y-2024148D02*
G54D10*
D03*
X496245Y-1998748D02*
G54D10*
D03*
X496245Y-1973348D02*
G54D10*
D03*
X420045Y-1973348D02*
G54D10*
D03*
X420045Y-1998748D02*
G54D10*
D03*
X420045Y-2024148D02*
G54D10*
D03*
X420045Y-2049548D02*
G54D10*
D03*
X420045Y-2074948D02*
G54D10*
D03*
X420045Y-2100348D02*
G54D10*
D03*
X420045Y-2125748D02*
G54D10*
D03*
X420045Y-2151149D02*
G54D10*
D03*
G36*
X640645Y-2159148D02*
X640645Y-2143148D01*
X656645Y-2143148D01*
X656645Y-2159148D01*
X640645Y-2159148D01*
G37*
X648645Y-2125748D02*
G54D10*
D03*
X648645Y-2100348D02*
G54D10*
D03*
X648645Y-2074948D02*
G54D10*
D03*
X648645Y-2049548D02*
G54D10*
D03*
X648645Y-2024148D02*
G54D10*
D03*
X648645Y-1998748D02*
G54D10*
D03*
X648645Y-1973348D02*
G54D10*
D03*
X572445Y-1973348D02*
G54D10*
D03*
X572445Y-1998748D02*
G54D10*
D03*
X572445Y-2024148D02*
G54D10*
D03*
X572445Y-2049548D02*
G54D10*
D03*
X572445Y-2074948D02*
G54D10*
D03*
X572445Y-2100348D02*
G54D10*
D03*
X572445Y-2125748D02*
G54D10*
D03*
X572445Y-2151148D02*
G54D10*
D03*
X1582100Y-2038700D02*
G54D11*
D03*
X1556700Y-2038700D02*
G54D11*
D03*
X1531300Y-2038700D02*
G54D11*
D03*
X1505900Y-2038700D02*
G54D11*
D03*
X1480500Y-2038700D02*
G54D11*
D03*
X1455100Y-2038700D02*
G54D11*
D03*
X1429700Y-2038700D02*
G54D11*
D03*
X1404300Y-2038700D02*
G54D11*
D03*
X1378900Y-2038700D02*
G54D11*
D03*
X1353500Y-2038700D02*
G54D11*
D03*
X1328100Y-2038700D02*
G54D11*
D03*
X1302700Y-2038700D02*
G54D11*
D03*
X1277300Y-2038700D02*
G54D11*
D03*
X1251900Y-2038700D02*
G54D11*
D03*
X1226500Y-2038700D02*
G54D11*
D03*
X1201100Y-2038700D02*
G54D11*
D03*
X1175700Y-2038700D02*
G54D11*
D03*
X1150300Y-2038700D02*
G54D11*
D03*
X1099500Y-2038700D02*
G54D11*
D03*
X1074100Y-2038700D02*
G54D11*
D03*
X1048700Y-2038700D02*
G54D11*
D03*
X1023300Y-2038700D02*
G54D11*
D03*
X997900Y-2038700D02*
G54D11*
D03*
X972500Y-2038700D02*
G54D11*
D03*
X947100Y-2038700D02*
G54D11*
D03*
X921700Y-2038700D02*
G54D11*
D03*
X896300Y-2038700D02*
G54D11*
D03*
X870900Y-2038700D02*
G54D11*
D03*
G36*
X835500Y-2028700D02*
X855500Y-2028700D01*
X855500Y-2048700D01*
X835500Y-2048700D01*
X835500Y-2028700D01*
G37*
X1124900Y-2038700D02*
G54D11*
D03*
X1582100Y-2165700D02*
G54D11*
D03*
X1556700Y-2165700D02*
G54D11*
D03*
X1531300Y-2165700D02*
G54D11*
D03*
X1505900Y-2165700D02*
G54D11*
D03*
X1480500Y-2165700D02*
G54D11*
D03*
X1455100Y-2165700D02*
G54D11*
D03*
X1429700Y-2165700D02*
G54D11*
D03*
X1404300Y-2165700D02*
G54D11*
D03*
X1378900Y-2165700D02*
G54D11*
D03*
X1353500Y-2165700D02*
G54D11*
D03*
X1328100Y-2165700D02*
G54D11*
D03*
X1302700Y-2165700D02*
G54D11*
D03*
X1277300Y-2165700D02*
G54D11*
D03*
X1251900Y-2165700D02*
G54D11*
D03*
X1226500Y-2165700D02*
G54D11*
D03*
X1201100Y-2165700D02*
G54D11*
D03*
X1175700Y-2165700D02*
G54D11*
D03*
X1150300Y-2165700D02*
G54D11*
D03*
X1124900Y-2165700D02*
G54D11*
D03*
X1099500Y-2165700D02*
G54D11*
D03*
X1074100Y-2165700D02*
G54D11*
D03*
X1048700Y-2165700D02*
G54D11*
D03*
X1023300Y-2165700D02*
G54D11*
D03*
X997900Y-2165700D02*
G54D11*
D03*
X972500Y-2165700D02*
G54D11*
D03*
X947100Y-2165700D02*
G54D11*
D03*
X921700Y-2165700D02*
G54D11*
D03*
X896300Y-2165700D02*
G54D11*
D03*
X870900Y-2165700D02*
G54D11*
D03*
G36*
X835500Y-2155700D02*
X855500Y-2155700D01*
X855500Y-2175700D01*
X835500Y-2175700D01*
X835500Y-2155700D01*
G37*
X2135000Y-2240000D02*
G54D12*
D03*
X2135000Y-2215000D02*
G54D12*
D03*
G54D25*
X2093000Y-2260000D02*
X2093000Y-2170000D01*
X2100000Y-2260000D02*
X2100000Y-2170000D01*
X2107000Y-2260000D02*
X2107000Y-2170000D01*
X2114000Y-2260000D02*
X2114000Y-2170000D01*
X2121000Y-2260000D02*
X2121000Y-2170000D01*
X2128000Y-2260000D02*
X2128000Y-2170000D01*
X2135000Y-2260000D02*
X2135000Y-2170000D01*
X2142000Y-2260000D02*
X2142000Y-2170000D01*
X2149000Y-2260000D02*
X2149000Y-2170000D01*
X2156000Y-2260000D02*
X2156000Y-2170000D01*
X2163000Y-2260000D02*
X2163000Y-2170000D01*
X2170000Y-2260000D02*
X2170000Y-2170000D01*
X2177000Y-2260000D02*
X2177000Y-2170000D01*
X2184000Y-2260000D02*
X2184000Y-2170000D01*
X2191000Y-2260000D02*
X2191000Y-2170000D01*
X2198000Y-2260000D02*
X2198000Y-2170000D01*
X2205000Y-2260000D02*
X2205000Y-2170000D01*
X2212000Y-2260000D02*
X2212000Y-2170000D01*
X2219000Y-2260000D02*
X2219000Y-2170000D01*
X2226000Y-2260000D02*
X2226000Y-2170000D01*
X2233000Y-2260000D02*
X2233000Y-2170000D01*
X2090000Y-2255000D02*
X2235000Y-2255000D01*
X2090000Y-2248000D02*
X2235000Y-2248000D01*
X2090000Y-2241000D02*
X2235000Y-2241000D01*
X2090000Y-2234000D02*
X2235000Y-2234000D01*
X2090000Y-2227000D02*
X2235000Y-2227000D01*
X2090000Y-2220000D02*
X2235000Y-2220000D01*
X2090000Y-2213000D02*
X2235000Y-2213000D01*
X2090000Y-2206000D02*
X2235000Y-2206000D01*
X2090000Y-2199000D02*
X2235000Y-2199000D01*
X2090000Y-2192000D02*
X2235000Y-2192000D01*
X2090000Y-2185000D02*
X2235000Y-2185000D01*
X2090000Y-2178000D02*
X2235000Y-2178000D01*
X2090000Y-2171000D02*
X2235000Y-2171000D01*
G54D25*
X2090000Y-2170000D02*
X2235000Y-2170000D01*
X2235000Y-2260000D01*
X2090000Y-2260000D01*
X2090000Y-2170000D01*
M02*
