; Drill file
; Format: 2.4 (00.0000)
M48
INCH
T01C0.0236
T02C0.0283
T03C0.0315
T04C0.0394
T05C0.0425
T06C0.0472
T07C0.0512
T08C0.0551
T09C0.0709
T10C0.0984
T11C0.126
%
G05
G90
T01
X036400Y-022150
X038940Y-019690
X038940Y-018690
X038940Y-017680
X041450Y-022150
X058030Y-018650
X058030Y-017650
T02
X004520Y-083680
X004520Y-082680
X004520Y-081680
X004520Y-080680
X004520Y-079680
X004520Y-078680
X004520Y-077680
X007520Y-077680
X007520Y-078680
X007520Y-079680
X007520Y-080680
X007520Y-081680
X007520Y-082680
X007520Y-083680
X010540Y-083690
X010540Y-082690
X010540Y-081690
X010540Y-080690
X010540Y-079690
X010540Y-078690
X010540Y-077690
X013540Y-077690
X013540Y-078690
X013540Y-079690
X013540Y-080690
X013540Y-081690
X013540Y-082690
X013540Y-083690
X013540Y-084690
X010540Y-084690
X016540Y-084690
X016540Y-083690
X016540Y-082690
X016540Y-081690
X016540Y-080690
X016540Y-079690
X016540Y-078690
X016540Y-077690
X019540Y-077690
X019540Y-078690
X019540Y-079690
X019540Y-080690
X019540Y-081690
X019540Y-082690
X019540Y-083690
X019540Y-084690
X022540Y-084690
X022540Y-083690
X022540Y-082690
X022540Y-081690
X022540Y-080690
X022540Y-079690
X022540Y-078690
X022540Y-077690
X025540Y-077690
X025540Y-078690
X025540Y-079690
X025540Y-080690
X025540Y-081690
X025540Y-082690
X025540Y-083690
X025540Y-084690
X027520Y-084250
X027520Y-083250
X027520Y-082250
X027520Y-081250
X027520Y-080250
X027520Y-079250
X027520Y-078250
X027520Y-077250
X027520Y-076250
X027510Y-073700
X027510Y-072700
X027510Y-071700
X027510Y-070700
X027510Y-069700
X027510Y-068700
X027510Y-067700
X027510Y-066700
X027510Y-065700
X027510Y-064700
X025540Y-066700
X025540Y-067700
X025540Y-068700
X025540Y-069700
X025540Y-070700
X025540Y-071700
X025540Y-072700
X025540Y-073700
X022540Y-073700
X022540Y-072700
X022540Y-071700
X022540Y-070700
X022540Y-069700
X022540Y-068700
X022540Y-067700
X022540Y-066700
X019540Y-066700
X019540Y-067700
X019540Y-068700
X019540Y-069700
X019540Y-070700
X019540Y-071700
X019540Y-072700
X019540Y-073700
X016540Y-073700
X016540Y-072700
X016540Y-071700
X016540Y-070700
X016540Y-069700
X016540Y-068700
X016540Y-067700
X016540Y-066700
X013540Y-066700
X013540Y-067700
X013540Y-068700
X013540Y-069700
X013540Y-070700
X013540Y-071700
X013540Y-072700
X013540Y-073700
X010540Y-073700
X010540Y-072700
X010540Y-071700
X010540Y-070700
X010540Y-069700
X010540Y-068700
X010540Y-067700
X010540Y-066700
X007510Y-066700
X007510Y-067700
X007510Y-068700
X007510Y-069700
X007510Y-070700
X007510Y-071700
X007510Y-072700
X004510Y-072700
X004510Y-071700
X004510Y-070700
X004510Y-069700
X004510Y-068700
X004510Y-067700
X004510Y-066700
X004510Y-061190
X004510Y-060190
X004510Y-059190
X004510Y-058190
X004510Y-057190
X004510Y-056190
X004510Y-055190
X004510Y-054190
X004510Y-053190
X004510Y-052190
X007510Y-052190
X007510Y-053190
X007510Y-054190
X007510Y-055190
X007510Y-056190
X007510Y-057190
X007510Y-058190
X007510Y-059190
X007510Y-060190
X007510Y-061190
X010490Y-061190
X010490Y-060190
X010490Y-059190
X010490Y-058190
X010490Y-057190
X010490Y-056190
X010490Y-055190
X010490Y-054190
X010490Y-053190
X010490Y-052190
X010490Y-051190
X010490Y-050190
X013490Y-050190
X013490Y-051190
X013490Y-052190
X013490Y-053190
X013490Y-054190
X013490Y-055190
X013490Y-056190
X013490Y-057190
X013490Y-058190
X013490Y-059190
X013490Y-060190
X013490Y-061190
X016490Y-061190
X016490Y-060190
X016490Y-059190
X016490Y-058190
X016490Y-057190
X016490Y-056190
X016490Y-055190
X016490Y-054190
X016490Y-053190
X016490Y-052190
X016490Y-051190
X016490Y-050190
X019490Y-050190
X019490Y-051190
X019490Y-052190
X019490Y-053190
X019490Y-054190
X019490Y-055190
X019490Y-056190
X019490Y-057190
X019490Y-058190
X019490Y-059190
X019490Y-060190
X019490Y-061190
X022480Y-061180
X022480Y-060180
X022480Y-059180
X022480Y-058180
X022480Y-057180
X022480Y-056180
X022480Y-055180
X025480Y-055180
X025480Y-056180
X025480Y-057180
X025480Y-058180
X025480Y-059180
X025480Y-060180
X025480Y-061180
X025460Y-045660
X025460Y-044660
X025460Y-043660
X025460Y-042660
X025460Y-041660
X025460Y-040660
X025460Y-039660
X027460Y-039660
X027460Y-040660
X027460Y-041660
X027460Y-042660
X027460Y-043660
X027460Y-044660
X027460Y-045660
X030460Y-045660
X030460Y-044660
X030460Y-043660
X030460Y-042660
X030460Y-041660
X030460Y-040660
X030460Y-039660
X034500Y-039660
X034500Y-038660
X034500Y-037660
X034500Y-036660
X034500Y-035660
X034500Y-034660
X034500Y-033660
X034500Y-032660
X030430Y-028640
X030430Y-027640
X030430Y-026640
X030430Y-025640
X027430Y-025640
X027430Y-026640
X027430Y-027640
X027430Y-028640
X024930Y-028620
X024930Y-029620
X024930Y-030620
X024930Y-031620
X024930Y-032620
X021930Y-032620
X021930Y-031620
X021930Y-030620
X021930Y-029620
X021930Y-028620
X021930Y-027620
X021930Y-026620
X021930Y-025620
X019430Y-025620
X019430Y-026620
X019430Y-027620
X019430Y-028620
X019430Y-029620
X019430Y-030620
X019430Y-031620
X019430Y-032620
X016430Y-032620
X016430Y-031620
X016430Y-030620
X016430Y-029620
X016430Y-028620
X016430Y-027620
X016430Y-026620
X016430Y-025620
X016420Y-019160
X015420Y-019160
X014420Y-019160
X013420Y-019160
X012420Y-019160
X011420Y-019160
X010420Y-019160
X009420Y-019160
X009420Y-016160
X010420Y-016160
X011420Y-016160
X012420Y-016160
X013420Y-016160
X014420Y-016160
X015420Y-016160
X016420Y-016160
X017420Y-016160
X018420Y-016160
X020420Y-016160
X021420Y-016160
X022420Y-016160
X023420Y-016160
X024420Y-016160
X025420Y-016160
X026420Y-016160
X027420Y-016160
X028420Y-016160
X029420Y-016160
X029410Y-013180
X028410Y-013180
X027410Y-013180
X026410Y-013180
X030410Y-013180
X031410Y-013180
X032410Y-013180
X033410Y-013180
X034410Y-013180
X035410Y-013180
X036410Y-013180
X037410Y-013180
X038410Y-013180
X039410Y-013180
X040410Y-013180
X041410Y-013180
X042410Y-013180
X043410Y-013180
X044410Y-013180
X045410Y-013180
X045410Y-007180
X044410Y-007180
X043410Y-007180
X042410Y-007180
X041410Y-007180
X040410Y-007180
X039410Y-007180
X038410Y-007180
X037410Y-007180
X036410Y-007180
X035410Y-007180
X034410Y-007180
X033410Y-007180
X032410Y-007180
X031410Y-007180
X030410Y-007180
X029410Y-007180
X028410Y-007180
X027410Y-007180
X026410Y-007180
X026420Y-019160
X025420Y-019160
X024420Y-019160
X023420Y-019160
X022420Y-019160
X021420Y-019160
X020420Y-019160
X018420Y-019160
X017420Y-019160
X024930Y-025620
X024930Y-026620
X024930Y-027620
X027420Y-019160
X028420Y-019160
X029420Y-019160
X040500Y-032660
X040500Y-033660
X040500Y-034660
X040500Y-035660
X040500Y-036660
X040500Y-037660
X040500Y-038660
X040500Y-039660
X040500Y-040660
X040500Y-041660
X040500Y-042660
X040500Y-043660
X040500Y-044660
X040500Y-045660
X043500Y-045660
X043500Y-044660
X043500Y-043660
X043500Y-042660
X043500Y-041660
X043500Y-040660
X043500Y-039660
X043500Y-038660
X043500Y-037660
X043500Y-036660
X043500Y-035660
X043500Y-034660
X043500Y-033660
X043500Y-032660
X049500Y-032660
X049500Y-033660
X049500Y-034660
X049500Y-035660
X049500Y-036660
X049500Y-037660
X049500Y-038660
X049500Y-039660
X049500Y-040660
X049500Y-041660
X049500Y-042660
X049500Y-043660
X049500Y-044660
X049500Y-045660
X052530Y-045640
X052530Y-044640
X052530Y-043640
X052530Y-042640
X052530Y-041640
X052530Y-040640
X052530Y-039640
X052530Y-038640
X052530Y-037640
X052530Y-036640
X052530Y-035640
X052530Y-034640
X052530Y-033640
X052530Y-032640
X058530Y-032640
X058530Y-033640
X058530Y-034640
X058530Y-035640
X058530Y-036640
X058530Y-037640
X058530Y-038640
X058530Y-039640
X058530Y-040640
X058530Y-041640
X058530Y-042640
X058530Y-043640
X058530Y-044640
X058530Y-045640
X062010Y-045640
X062010Y-044640
X062010Y-043640
X062010Y-042640
X062010Y-041640
X062010Y-040640
X062010Y-039640
X062010Y-038640
X062010Y-037640
X062010Y-036640
X062010Y-035640
X062010Y-034640
X062010Y-033640
X062010Y-032640
X062010Y-031640
X062010Y-030640
X062010Y-029640
X062010Y-028640
X062010Y-027640
X062010Y-026640
X063500Y-023640
X063500Y-022640
X063500Y-021640
X063500Y-020640
X066500Y-020640
X066500Y-021640
X066500Y-022640
X066500Y-023640
X068010Y-026640
X068010Y-027640
X068010Y-028640
X068010Y-029640
X068010Y-030640
X068010Y-031640
X068010Y-032640
X068010Y-033640
X068010Y-034640
X068010Y-035640
X068010Y-036640
X068010Y-037640
X068010Y-038640
X068010Y-039640
X068010Y-040640
X068010Y-041640
X068010Y-042640
X068010Y-043640
X068010Y-044640
X068010Y-045640
X071010Y-045640
X071010Y-044640
X071010Y-043640
X071010Y-042640
X071010Y-041640
X071010Y-040640
X071010Y-039640
X071010Y-038640
X071010Y-037640
X071010Y-036640
X071010Y-035640
X071010Y-034640
X071010Y-033640
X071010Y-032640
X071010Y-031640
X071010Y-030640
X071010Y-029640
X071010Y-028640
X071010Y-027640
X071010Y-026640
X077010Y-026640
X077010Y-027640
X077010Y-028640
X077010Y-029640
X077010Y-030640
X077010Y-031640
X077010Y-032640
X077010Y-033640
X077010Y-034640
X077010Y-035640
X077010Y-036640
X077010Y-037640
X077010Y-038640
X077010Y-039640
X077010Y-040640
X077010Y-041640
X077010Y-042640
X077010Y-043640
X077010Y-044640
X077010Y-045640
X079030Y-039640
X079030Y-038640
X079030Y-037640
X079030Y-036640
X079030Y-035640
X079030Y-034640
X079030Y-033640
X079030Y-032640
X082030Y-032640
X082030Y-033640
X082030Y-034640
X082030Y-035640
X082030Y-036640
X082030Y-037640
X082030Y-038640
X082030Y-039640
X076030Y-052180
X076030Y-053180
X076030Y-054180
X076030Y-055180
X076030Y-056180
X076030Y-057180
X076030Y-058180
X076030Y-059180
X076030Y-060180
X076030Y-061180
X073030Y-061180
X073030Y-060180
X073030Y-059180
X073030Y-058180
X073030Y-057180
X073030Y-056180
X073030Y-055180
X073030Y-054180
X073030Y-053180
X073030Y-052180
X071010Y-052190
X071010Y-053190
X071010Y-054190
X071010Y-055190
X071010Y-056190
X071010Y-057190
X071010Y-058190
X071010Y-059190
X071010Y-060190
X071010Y-061190
X068010Y-061190
X068010Y-060190
X068010Y-059190
X068010Y-058190
X068010Y-057190
X068010Y-056190
X068010Y-055190
X068010Y-054190
X068010Y-053190
X068010Y-052190
X066010Y-052190
X066010Y-053190
X066010Y-054190
X066010Y-055190
X066010Y-056190
X066010Y-057190
X066010Y-058190
X066010Y-059190
X066010Y-060190
X066010Y-061190
X063010Y-061190
X063010Y-060190
X063010Y-059190
X063010Y-058190
X063010Y-057190
X063010Y-056190
X063010Y-055190
X063010Y-054190
X063010Y-053190
X063010Y-052190
X068040Y-066700
X068040Y-067700
X068040Y-068700
X068040Y-069700
X068040Y-070700
X068040Y-071700
X068040Y-072700
X068040Y-073700
X071040Y-073700
X071040Y-072700
X071040Y-071700
X071040Y-070700
X071040Y-069700
X071040Y-068700
X071040Y-067700
X071040Y-066700
X073030Y-066690
X073030Y-067690
X073030Y-068690
X073030Y-069690
X073030Y-070690
X073030Y-071690
X073030Y-072690
X073030Y-073690
X076030Y-073690
X076030Y-072690
X076030Y-071690
X076030Y-070690
X076030Y-069690
X076030Y-068690
X076030Y-067690
X076030Y-066690
X079040Y-066680
X079040Y-067680
X079040Y-068680
X079040Y-069680
X079040Y-070680
X079040Y-071680
X079040Y-072680
X079040Y-073680
X082040Y-073680
X082040Y-072680
X082040Y-071680
X082040Y-070680
X082040Y-069680
X082040Y-068680
X082040Y-067680
X082040Y-066680
X082040Y-061180
X082040Y-060180
X082040Y-059180
X082040Y-058180
X082040Y-057180
X082040Y-056180
X082040Y-055180
X082040Y-054180
X079040Y-054180
X079040Y-055180
X079040Y-056180
X079040Y-057180
X079040Y-058180
X079040Y-059180
X079040Y-060180
X079040Y-061180
X071040Y-077690
X071040Y-078690
X071040Y-079690
X071040Y-080690
X071040Y-081690
X071040Y-082690
X071040Y-083690
X071040Y-084690
X068040Y-084690
X068040Y-083690
X068040Y-082690
X068040Y-081690
X068040Y-080690
X068040Y-079690
X068040Y-078690
X068040Y-077690
X027520Y-085250
X022460Y-045660
X022460Y-044660
X022460Y-043660
X022460Y-042660
X022460Y-041660
X022460Y-040660
X022460Y-039660
X019490Y-039640
X019490Y-040640
X019490Y-041640
X019490Y-042640
X019490Y-043640
X019490Y-044640
X019490Y-045640
X016490Y-045640
X016490Y-044640
X016490Y-043640
X016490Y-042640
X016490Y-041640
X016490Y-040640
X016490Y-039640
X016490Y-038640
X016490Y-037640
X016490Y-036640
X013490Y-036640
X013490Y-037640
X013490Y-038640
X013490Y-039640
X013490Y-040640
X013490Y-041640
X013490Y-042640
X013490Y-043640
X013490Y-044640
X013490Y-045640
X010490Y-045640
X010490Y-044640
X010490Y-043640
X010490Y-042640
X010490Y-041640
X010490Y-040640
X010490Y-039640
X010490Y-038640
X010490Y-037640
X010490Y-036640
X007490Y-036640
X007490Y-037640
X007490Y-038640
X007490Y-039640
X007490Y-040640
X007490Y-041640
X007490Y-042640
X007490Y-043640
X007490Y-044640
X007490Y-045640
X004490Y-045640
X004490Y-044640
X004490Y-043640
X004490Y-042640
X004490Y-041640
X004490Y-040640
X004490Y-039640
X004490Y-038640
X004490Y-037640
X004490Y-036640
X019490Y-036640
X019490Y-037640
X019490Y-038640
X034500Y-040660
X034500Y-041660
X034500Y-042660
X034500Y-043660
X034500Y-044660
X034500Y-045660
X052480Y-013350
X053480Y-013350
X054480Y-013350
X055480Y-013350
X056480Y-013350
X057480Y-013350
X058480Y-013350
X059480Y-013350
X060480Y-013350
X061480Y-013350
X063480Y-013350
X064480Y-013350
X065480Y-013350
X066480Y-013350
X067480Y-013350
X068480Y-013350
X069480Y-013350
X070480Y-013350
X071480Y-013350
X072480Y-013350
X072480Y-010350
X071480Y-010350
X070480Y-010350
X069480Y-010350
X068480Y-010350
X067480Y-010350
X066480Y-010350
X065480Y-010350
X064480Y-010350
X063480Y-010350
X061480Y-010350
X060480Y-010350
X059480Y-010350
X058480Y-010350
X057480Y-010350
X056480Y-010350
X055480Y-010350
X054480Y-010350
X053480Y-010350
X052480Y-010350
T03
X008770Y-083180
X008760Y-081700
X012280Y-085760
X013530Y-085750
X015280Y-082700
X014550Y-081230
X014540Y-079700
X015270Y-078980
X015040Y-077690
X015520Y-076780
X018530Y-074490
X018260Y-073240
X021050Y-075010
X021040Y-076730
X018540Y-079250
X018520Y-080230
X021540Y-082700
X023540Y-084690
X024320Y-085740
X026320Y-081210
X026530Y-079690
X026740Y-078710
X029530Y-077960
X028270Y-082260
X024030Y-079700
X025000Y-074650
X029020Y-072030
X029800Y-072500
X029790Y-071530
X031760Y-070200
X032760Y-070910
X030750Y-066690
X029260Y-067190
X026760Y-067130
X026540Y-067760
X025270Y-063970
X023760Y-063470
X024480Y-061600
X021710Y-060680
X021010Y-061950
X018520Y-062240
X018760Y-060700
X017950Y-058170
X017730Y-057170
X017480Y-056190
X018520Y-054710
X017230Y-053730
X017760Y-052170
X015230Y-050700
X014480Y-052230
X014490Y-054500
X011760Y-054750
X008230Y-057680
X008470Y-059190
X009000Y-060200
X008990Y-061190
X009500Y-061980
X008220Y-062210
X007250Y-062200
X005990Y-064000
X004990Y-064010
X005530Y-065760
X010990Y-064000
X012000Y-064000
X011460Y-062460
X015250Y-061760
X015730Y-060710
X018760Y-063990
X020520Y-066200
X021520Y-068210
X021030Y-070210
X015010Y-071690
X014790Y-069890
X012270Y-070830
X011770Y-072710
X008480Y-071720
X008030Y-074290
X007030Y-076000
X005520Y-075250
X005750Y-073770
X014250Y-065470
X015520Y-066180
X020750Y-057670
X021020Y-056930
X021260Y-055930
X020720Y-053730
X022190Y-052960
X023490Y-052950
X023200Y-051490
X022480Y-051490
X021970Y-049900
X023970Y-048460
X025240Y-048530
X023720Y-046960
X022740Y-046920
X021980Y-046690
X020490Y-046220
X018760Y-044240
X020280Y-043150
X023970Y-041200
X026470Y-041770
X026470Y-039250
X026210Y-037010
X024960Y-035990
X023710Y-035470
X020980Y-036750
X022450Y-038730
X018440Y-039170
X015460Y-040290
X015720Y-041170
X014440Y-040220
X014190Y-042190
X012750Y-045150
X011750Y-044630
X011770Y-046210
X011230Y-048260
X011500Y-049500
X009700Y-048510
X007490Y-046760
X006500Y-046480
X005030Y-046720
X005480Y-048450
X005720Y-049990
X004470Y-050000
X007490Y-051220
X005730Y-053240
X003210Y-053050
X003730Y-057740
X003490Y-058750
X003510Y-059750
X008710Y-045710
X008460Y-044650
X009000Y-043700
X009490Y-040650
X006480Y-041640
X006230Y-040650
X003450Y-041180
X003730Y-039230
X005480Y-043660
X003210Y-044640
X013760Y-047070
X018230Y-048710
X019240Y-048740
X024250Y-045500
X026480Y-044770
X027760Y-048770
X027010Y-051020
X027540Y-052200
X028540Y-052200
X029540Y-052200
X030540Y-052200
X031540Y-052200
X032540Y-052200
X033540Y-052200
X034540Y-052200
X035540Y-052200
X036540Y-052200
X037540Y-052200
X038540Y-052200
X039540Y-052200
X040540Y-052200
X041540Y-052200
X042540Y-052200
X043540Y-052200
X044540Y-052200
X045540Y-052200
X046540Y-052200
X047540Y-052200
X048540Y-052200
X049540Y-052200
X050540Y-052200
X051540Y-052200
X052540Y-052200
X053540Y-052200
X054540Y-052200
X055540Y-052200
X056540Y-052200
X057540Y-052200
X058540Y-052200
X058070Y-053110
X057030Y-053400
X056040Y-053190
X056040Y-054220
X058030Y-055720
X059560Y-054440
X060260Y-054180
X061290Y-054930
X060810Y-055460
X059780Y-056960
X057780Y-057730
X058800Y-059220
X057310Y-059690
X057540Y-061200
X058540Y-061200
X056540Y-061200
X055540Y-061200
X054540Y-061200
X053540Y-061200
X052540Y-061200
X051540Y-061200
X050540Y-061200
X049540Y-061200
X048540Y-061200
X047540Y-061200
X046540Y-061200
X045540Y-061200
X044540Y-061200
X043540Y-061200
X042540Y-061200
X041540Y-061200
X040540Y-061200
X039540Y-061200
X038540Y-061200
X037540Y-061200
X036540Y-061200
X035540Y-061200
X034540Y-061200
X033540Y-061200
X032540Y-061200
X031540Y-061200
X030540Y-061200
X029540Y-061200
X028540Y-061200
X027540Y-061200
X030500Y-063490
X031490Y-059990
X032480Y-059470
X033490Y-058500
X034500Y-057980
X038000Y-059220
X038980Y-057960
X040520Y-057000
X041510Y-057240
X037980Y-053700
X036010Y-053950
X035980Y-047740
X035510Y-045170
X036990Y-044660
X037980Y-045980
X039210Y-045720
X039730Y-046740
X044510Y-045720
X044490Y-044700
X045990Y-043250
X044750Y-041150
X044730Y-039170
X044750Y-038150
X045970Y-035200
X047770Y-036210
X047210Y-032710
X046500Y-030230
X048510Y-028950
X050740Y-023450
X054510Y-022690
X054480Y-019690
X051760Y-018920
X052260Y-017880
X049480Y-019690
X042710Y-022210
X042480Y-023970
X038680Y-024200
X032440Y-025970
X030930Y-024730
X029450Y-024190
X029710Y-026200
X028210Y-029460
X026960Y-029960
X028930Y-031490
X029470Y-029980
X030430Y-030720
X030690Y-031990
X035210Y-032000
X037450Y-031960
X038470Y-032710
X037470Y-033730
X037230Y-035220
X037970Y-035730
X038750Y-036220
X037280Y-036670
X038000Y-038660
X035740Y-040210
X035990Y-041240
X036500Y-042220
X033500Y-042640
X032220Y-042930
X031980Y-041670
X032480Y-040210
X032970Y-039200
X033500Y-038710
X033720Y-037160
X035180Y-035210
X030440Y-037220
X028980Y-038740
X029480Y-041160
X032760Y-044200
X033710Y-045790
X041740Y-040220
X047260Y-040190
X050790Y-042210
X051280Y-046230
X054030Y-045940
X055780Y-045710
X056790Y-044200
X058030Y-046910
X058780Y-046940
X063040Y-046950
X063010Y-049420
X064050Y-051690
X064250Y-052360
X064820Y-053420
X065280Y-054690
X064550Y-055470
X065040Y-056200
X064790Y-057190
X064540Y-058460
X064280Y-061130
X064280Y-062700
X067300Y-062240
X068280Y-062980
X069030Y-062450
X068020Y-064980
X067290Y-065480
X070050Y-065710
X074550Y-067190
X076030Y-065710
X077530Y-066210
X079810Y-063450
X078040Y-059700
X080290Y-055220
X074040Y-055690
X074030Y-054700
X074020Y-051190
X076040Y-048430
X078040Y-048420
X079800Y-046900
X080800Y-045410
X076030Y-045680
X075040Y-041670
X076050Y-040680
X074540Y-039660
X074540Y-036650
X069010Y-038170
X068760Y-037160
X066280Y-034700
X067040Y-033680
X065540Y-031180
X063520Y-030680
X063010Y-029670
X063000Y-027690
X061000Y-026680
X060770Y-030180
X058770Y-030420
X056770Y-028920
X057030Y-032690
X055000Y-033210
X056520Y-037640
X057010Y-038440
X057500Y-039180
X053780Y-039170
X060770Y-037180
X060510Y-036170
X060270Y-035190
X062750Y-034180
X063520Y-034690
X063030Y-037160
X063770Y-038680
X064520Y-038690
X064800Y-037170
X063270Y-039680
X065050Y-041680
X066040Y-042930
X067030Y-042690
X064780Y-043630
X066310Y-045200
X065790Y-045700
X068280Y-047190
X069030Y-045200
X066040Y-051180
X061800Y-052430
X061530Y-053220
X059780Y-052670
X057000Y-051210
X056030Y-051220
X055260Y-051220
X052030Y-053170
X052060Y-054180
X051280Y-054980
X050550Y-055730
X048510Y-053720
X050030Y-050480
X047500Y-047680
X046240Y-050480
X044500Y-050740
X042000Y-062240
X038750Y-064020
X038270Y-062500
X035270Y-062730
X036300Y-066950
X039520Y-068020
X040760Y-068000
X042780Y-068540
X045270Y-066960
X049780Y-068540
X053270Y-063220
X063520Y-069230
X064790Y-069710
X066050Y-070710
X066570Y-071720
X067290Y-073160
X065810Y-078150
X063540Y-084190
X072570Y-085430
X074050Y-073200
X078070Y-073220
X065040Y-067670
X069550Y-056190
X069810Y-055210
X070030Y-054170
X074030Y-028650
X076010Y-025890
X072770Y-024880
X071280Y-025400
X068770Y-024660
X069010Y-022390
X071490Y-021360
X073520Y-022140
X074540Y-022380
X075260Y-021870
X076990Y-018640
X078020Y-017610
X077270Y-016620
X076260Y-017130
X074760Y-017370
X073010Y-017390
X071520Y-018130
X066760Y-018370
X066250Y-016680
X062250Y-019900
X061520Y-023150
X065260Y-024180
X065020Y-026410
X066030Y-026670
X059010Y-018640
X060540Y-006390
X048740Y-008150
X033930Y-018680
X032430Y-019430
X029200Y-021210
X026930Y-019880
X025640Y-020970
X023680Y-021470
X024430Y-023710
X024940Y-024230
X025450Y-023730
X026190Y-024480
X026940Y-023710
X023450Y-025230
X022940Y-026730
X020700Y-029230
X018710Y-029230
X017200Y-032240
X018210Y-033500
X021210Y-032500
X022940Y-031740
X025990Y-033240
X018680Y-025480
X017940Y-024480
X016440Y-024230
X017190Y-026230
X013970Y-024010
X012440Y-024490
X011940Y-026020
X012940Y-026230
X012440Y-027740
X012210Y-031010
X008960Y-032280
X007180Y-030250
X006210Y-028000
X006710Y-024250
X011430Y-022480
X012940Y-014960
X015900Y-011670
X016910Y-010930
X018670Y-011930
X021420Y-013160
X019450Y-020980
X013390Y-006920
X007640Y-006950
X012720Y-036260
X014480Y-036510
X014730Y-038260
X012230Y-038260
X024000Y-054470
X024730Y-055670
X023520Y-056430
X024510Y-057720
X023480Y-058680
X026750Y-055400
X039750Y-076010
X040270Y-077300
X043050Y-078020
X044290Y-078550
X049780Y-078490
X050300Y-082760
X034540Y-083750
X042470Y-032180
X078520Y-019640
X080010Y-019350
X080530Y-020120
X080820Y-024390
X081290Y-014390
X077270Y-014390
T04
X010540Y-075930
X014540Y-075930
X016540Y-075930
X020540Y-075930
X022040Y-075930
X026040Y-075930
X033040Y-076930
X033290Y-074260
X034290Y-074260
X035290Y-074260
X036290Y-074260
X037290Y-074260
X038290Y-074260
X039290Y-074260
X040290Y-074260
X041290Y-074260
X042290Y-074260
X043290Y-074260
X044290Y-074260
X045290Y-074260
X046290Y-074260
X047290Y-074260
X048290Y-074260
X049290Y-074260
X050290Y-074260
X051290Y-074260
X052290Y-074260
X053290Y-074260
X054290Y-074260
X055290Y-074260
X056290Y-074260
X057290Y-074260
X058290Y-074260
X059290Y-074260
X060290Y-074260
X061290Y-074260
X062290Y-074260
X060540Y-076930
X060290Y-080260
X061290Y-080260
X062290Y-080260
X059290Y-080260
X058290Y-080260
X057290Y-080260
X056290Y-080260
X055290Y-080260
X054290Y-080260
X053290Y-080260
X052290Y-080260
X051290Y-080260
X050290Y-080260
X049290Y-080260
X048290Y-080260
X047290Y-080260
X046290Y-080260
X045290Y-080260
X044290Y-080260
X043290Y-080260
X042290Y-080260
X041290Y-080260
X040290Y-080260
X039290Y-080260
X038290Y-080260
X037290Y-080260
X036290Y-080260
X035290Y-080260
X034290Y-080260
X033290Y-080260
X033290Y-085260
X034290Y-085260
X035290Y-085260
X036290Y-085260
X037290Y-085260
X038290Y-085260
X039290Y-085260
X040290Y-085260
X041290Y-085260
X042290Y-085260
X043290Y-085260
X044290Y-085260
X045290Y-085260
X046290Y-085260
X047290Y-085260
X048290Y-085260
X049290Y-085260
X050290Y-085260
X051290Y-085260
X052290Y-085260
X053290Y-085260
X054290Y-085260
X055290Y-085260
X056290Y-085260
X057290Y-085260
X058290Y-085260
X059290Y-085260
X060290Y-085260
X061290Y-085260
X062290Y-085260
X064540Y-076930
X068060Y-075670
X072060Y-075670
X080550Y-076710
X080550Y-077710
X080550Y-078710
X080550Y-079710
X080550Y-080720
X080550Y-081720
X079410Y-085670
X078560Y-085670
X079010Y-086610
X079860Y-086610
X084060Y-087200
X084060Y-088190
X085560Y-081720
X085560Y-080720
X085550Y-079710
X085550Y-078710
X085550Y-077710
X085550Y-076710
X081540Y-064220
X077540Y-064220
X076540Y-064220
X072540Y-064220
X064540Y-064720
X060540Y-064720
X060290Y-069260
X061290Y-069260
X062290Y-069260
X059290Y-069260
X058290Y-069260
X057290Y-069260
X056290Y-069260
X055290Y-069260
X054290Y-069260
X053290Y-069260
X052290Y-069260
X051290Y-069260
X050290Y-069260
X049290Y-069260
X048290Y-069260
X047290Y-069260
X046290Y-069260
X045290Y-069260
X044290Y-069260
X043290Y-069260
X042290Y-069260
X041290Y-069260
X040290Y-069260
X039290Y-069260
X038290Y-069260
X037290Y-069260
X036290Y-069260
X035290Y-069260
X034290Y-069260
X033290Y-069260
X033540Y-064720
X037540Y-064720
X042540Y-064720
X046540Y-064720
X051540Y-064720
X055540Y-064720
X055540Y-076930
X051540Y-076930
X046540Y-076930
X042540Y-076930
X037040Y-076930
X026810Y-086870
X021810Y-086870
X022010Y-064840
X020510Y-064840
X021470Y-063300
X026010Y-064840
X016510Y-064840
X015010Y-064810
X014970Y-063300
X016470Y-063300
X009970Y-063300
X008970Y-063300
X008510Y-064840
X009980Y-064830
X004510Y-064840
X003970Y-063300
X003450Y-050740
X003450Y-049240
X004500Y-047740
X008500Y-047740
X008450Y-049240
X008450Y-050740
X010500Y-047740
X014500Y-047740
X015950Y-047740
X020950Y-047740
X020750Y-049260
X020750Y-050800
X020750Y-052300
X022500Y-047740
X025720Y-049240
X025750Y-050800
X025750Y-052300
X027710Y-050210
X026500Y-047740
X031040Y-047150
X032760Y-050210
X035040Y-047150
X041540Y-047650
X045540Y-047650
X052540Y-047650
X053530Y-050120
X056540Y-047650
X058530Y-050120
X060040Y-050130
X061540Y-047650
X064040Y-050130
X065540Y-047650
X067540Y-050130
X071540Y-050130
X074010Y-049970
X075040Y-047650
X077040Y-047650
X077040Y-052150
X082040Y-052150
X082010Y-049970
X082040Y-047650
X082480Y-041330
X078480Y-041330
X071040Y-047650
X079270Y-030660
X079270Y-029160
X078760Y-026170
X076040Y-023630
X076040Y-020130
X070590Y-017650
X068040Y-020130
X065590Y-017650
X064090Y-017650
X062540Y-021130
X059540Y-023650
X059540Y-025150
X060010Y-026650
X059540Y-028150
X060040Y-029630
X055540Y-028150
X055040Y-029630
X055010Y-026650
X055540Y-025150
X055540Y-023650
X053510Y-024150
X053510Y-022650
X053510Y-021150
X054540Y-021130
X059090Y-017650
X063040Y-025150
X067040Y-025150
X068040Y-023630
X071000Y-009100
X071000Y-007600
X069790Y-007600
X065790Y-007600
X058240Y-007370
X057240Y-007370
X056240Y-007370
X055240Y-007370
X054240Y-007370
X054240Y-006370
X053240Y-006370
X052240Y-006370
X052240Y-007370
X053240Y-007370
X051240Y-007370
X051240Y-006370
X050240Y-006370
X050240Y-007370
X049240Y-007370
X049240Y-006370
X051020Y-010620
X047020Y-010620
X055240Y-006370
X056240Y-006370
X057240Y-006370
X058240Y-006370
X075000Y-007600
X075000Y-009100
X083760Y-026170
X084270Y-029160
X084270Y-030660
X048510Y-024150
X048510Y-022650
X048510Y-021150
X034190Y-022630
X026190Y-022630
X024430Y-022620
X016430Y-022620
X015420Y-023470
X014950Y-025240
X014950Y-026980
X014950Y-028750
X014950Y-030250
X014950Y-031750
X015200Y-034770
X010200Y-034770
X008940Y-034760
X008940Y-033260
X007940Y-031750
X009950Y-031750
X009950Y-030250
X009950Y-028750
X008930Y-028780
X008920Y-027300
X009950Y-026980
X009950Y-025240
X010420Y-023470
X009420Y-023470
X007420Y-021230
X004420Y-023470
X003420Y-021230
X003920Y-027300
X003930Y-028780
X003940Y-031750
X003940Y-033260
X003940Y-034760
X020950Y-034750
X022450Y-037750
X025950Y-034750
X027420Y-034770
X027450Y-036250
X027450Y-037750
X028420Y-037770
X032420Y-037770
X032450Y-036250
X031420Y-034770
X020920Y-009230
X021910Y-007680
X021910Y-006160
X016900Y-006160
X016910Y-007680
X016920Y-009230
X014200Y-004690
X014190Y-003690
X013430Y-003690
X013170Y-004690
X012360Y-004690
X011590Y-004690
X011590Y-003690
X012360Y-003690
X007940Y-003690
X007180Y-003690
X006920Y-004690
X006110Y-004690
X005340Y-004690
X005340Y-003690
X006110Y-003690
X007950Y-004690
T05
X024130Y-004430
X025220Y-004430
X026300Y-004430
X027390Y-004430
X028490Y-004430
X029580Y-004430
X030670Y-004430
X031760Y-004430
X032850Y-004430
X033930Y-004430
X035020Y-004430
X036120Y-004430
X037210Y-004430
X036670Y-003310
X035580Y-003310
X034490Y-003310
X033390Y-003310
X032300Y-003310
X031220Y-003310
X030130Y-003310
X029040Y-003310
X027950Y-003310
X026860Y-003310
X025770Y-003310
X024670Y-003310
X050470Y-004390
X051560Y-004390
X052640Y-004390
X053730Y-004390
X054820Y-004390
X055910Y-004390
X057000Y-004390
X058100Y-004390
X059190Y-004390
X060270Y-004390
X059730Y-003280
X058640Y-003280
X057560Y-003280
X056470Y-003280
X055380Y-003280
X054280Y-003280
X053190Y-003280
X052100Y-003280
X051010Y-003280
X070740Y-004370
X071830Y-004370
X072920Y-004370
X074010Y-004370
X075100Y-004370
X074560Y-003260
X073470Y-003260
X072380Y-003260
X071290Y-003260
T06
X009180Y-021170
X014190Y-021160
T07
X004140Y-017490
X004150Y-015510
X004140Y-012220
X004140Y-010240
X003950Y-002710
X003950Y-002670
X003950Y-002630
X003950Y-002590
X003950Y-002550
X003950Y-002510
X003950Y-002470
X003950Y-002440
X003950Y-002400
X003950Y-002360
X003950Y-002320
X003950Y-002280
X006420Y-002190
X006460Y-002190
X006500Y-002190
X006540Y-002190
X006580Y-002190
X006620Y-002190
X006660Y-002190
X006700Y-002190
X006740Y-002190
X006780Y-002190
X006820Y-002190
X006850Y-002190
X009270Y-002290
X009270Y-002320
X009270Y-002360
X009270Y-002400
X009270Y-002440
X009270Y-002480
X009270Y-002520
X009270Y-002560
X009270Y-002600
X009270Y-002640
X009270Y-002680
X009270Y-002720
X010200Y-002710
X010200Y-002670
X010200Y-002630
X010200Y-002590
X010200Y-002550
X010200Y-002510
X010200Y-002470
X010200Y-002440
X010200Y-002400
X010200Y-002360
X010200Y-002320
X010200Y-002280
X012670Y-002190
X012710Y-002190
X012750Y-002190
X012790Y-002190
X012830Y-002190
X012870Y-002190
X012910Y-002190
X012950Y-002190
X012990Y-002190
X013030Y-002190
X013070Y-002190
X013100Y-002190
X015520Y-002290
X015520Y-002320
X015520Y-002360
X015520Y-002400
X015520Y-002440
X015520Y-002480
X015520Y-002520
X015520Y-002560
X015520Y-002600
X015520Y-002640
X015520Y-002680
X015520Y-002720
T08
X082020Y-020610
X085260Y-020620
X085280Y-012360
X082030Y-012340
T09
X035460Y-027680
X038570Y-027680
X040140Y-027680
X041700Y-027680
X043260Y-027690
X044820Y-027690
X046380Y-027690
X047960Y-027690
X049550Y-027690
X051120Y-027690
T10
X019450Y-015130
X029950Y-015130
X041450Y-015130
X052040Y-015130
X062540Y-015130
X074540Y-015130
X078770Y-007610
X083010Y-005830
X083010Y-003570
X083020Y-001500
X086020Y-001690
X011150Y-007730
X002630Y-001670
T11
X021340Y-003800
X039960Y-003800
X047710Y-003800
X062980Y-003810
X068010Y-003830
X077840Y-003830
M30
